<svg xmlns="http://www.w3.org/2000/svg" xmlns:xlink="http://www.w3.org/1999/xlink" width="1088" height="540" viewBox="0 0 1088 540">
  <defs>
    <clipPath id="clip-path">
      <rect id="Rectangle_360" data-name="Rectangle 360" width="260" height="260" transform="translate(967 1302)" fill="#fff" stroke="#f0f0f0" stroke-width="1"/>
    </clipPath>
    <linearGradient id="linear-gradient" x1="-0.155" y1="-0.155" x2="0.725" y2="0.725" gradientUnits="objectBoundingBox">
      <stop offset="0" stop-color="#f7931e"/>
      <stop offset="1" stop-color="#e1523d"/>
    </linearGradient>
    <filter id="Rectangle_386" x="74" y="362" width="113.106" height="113.107" filterUnits="userSpaceOnUse">
      <feOffset dy="8" input="SourceAlpha"/>
      <feGaussianBlur stdDeviation="9" result="blur"/>
      <feFlood flood-color="#f7931e" flood-opacity="0.122"/>
      <feComposite operator="in" in2="blur"/>
      <feComposite in="SourceGraphic"/>
    </filter>
    <linearGradient id="linear-gradient-2" x1="0" y1="0.5" x2="1" y2="0.5" xlink:href="#linear-gradient"/>
    <linearGradient id="linear-gradient-3" x1="0.954" y1="0.776" x2="0.756" y2="0.655" xlink:href="#linear-gradient"/>
    <clipPath id="clip-path-2">
      <rect id="Rectangle_353" data-name="Rectangle 353" width="536" height="260" transform="translate(691 994)" fill="#fff" stroke="#f0f0f0" stroke-width="1"/>
    </clipPath>
  </defs>
  <g id="Group_1137" data-name="Group 1137" transform="translate(-139 -1286)">
    <g id="Mask_Group_8" data-name="Mask Group 8" transform="translate(-828 264)" clip-path="url(#clip-path)">
      <g id="Group_887" data-name="Group 887" transform="translate(-459.666 952.717)">
        <rect id="Rectangle_356" data-name="Rectangle 356" width="260.229" height="454.976" transform="translate(1426.666 252.283)" fill="#4d4d4d"/>
        <path id="Path_5705" data-name="Path 5705" d="M1675.5,631.72a1.254,1.254,0,1,0,1.255,1.254,1.255,1.255,0,0,0-1.255-1.254" transform="translate(-100.562 -154.28)" fill="#7058c4" fill-rule="evenodd"/>
        <path id="Path_5706" data-name="Path 5706" d="M1662.965,629.82a2.383,2.383,0,1,0,2.383,2.382,2.383,2.383,0,0,0-2.383-2.382" transform="translate(-95.012 -153.509)" fill="#79dfe5" fill-rule="evenodd"/>
        <path id="Path_5707" data-name="Path 5707" d="M1663.737,631.72a1.254,1.254,0,1,0,1.255,1.255,1.255,1.255,0,0,0-1.255-1.255" transform="translate(-95.784 -154.28)" fill="#7058c4" fill-rule="evenodd"/>
        <path id="Path_5708" data-name="Path 5708" d="M1656.865,621.645a8.415,8.415,0,0,1,.673-4.814,6.666,6.666,0,0,1,4.012,2.743,11.389,11.389,0,0,0-4.685,2.07m16.485,0a8.416,8.416,0,0,0-.673-4.813,6.666,6.666,0,0,0-4.012,2.743A11.4,11.4,0,0,1,1673.35,621.644Z" transform="translate(-93.469 -148.233)" fill="#00c2cd" fill-rule="evenodd"/>
        <g id="Group_1052" data-name="Group 1052" transform="translate(997.666 379.189)">
          <g transform="matrix(1, 0, 0, 1, 429, -309.91)" filter="url(#Rectangle_386)">
            <rect id="Rectangle_386-2" data-name="Rectangle 386" width="59.107" height="59.107" rx="15" transform="translate(101 381)" fill="url(#linear-gradient)"/>
          </g>
          <g id="Group_1051" data-name="Group 1051" transform="translate(538.072 79.167)">
            <path id="Path_6144" data-name="Path 6144" d="M584.37,117.531c-.114-.114-7.935,7.935-7.935,7.935h7.935Z" transform="translate(-576.435 -117.53)" fill="url(#linear-gradient-2)"/>
            <g id="Group_1049" data-name="Group 1049" transform="translate(18.198 2.153)">
              <path id="Path_6145" data-name="Path 6145" d="M696.637,147.073v6.646a8.688,8.688,0,0,1-8.679,8.679h-6.845v8.313h12.434a1.716,1.716,0,0,1-.088-.535,2.909,2.909,0,0,1,3.421-2.879,4.088,4.088,0,0,1,5.6-5.419,2.918,2.918,0,0,1,2.85-3.571,1.831,1.831,0,0,1,.553.088v-28.48" transform="translate(-681.113 -129.915)" fill="url(#linear-gradient-3)"/>
            </g>
            <g id="Group_1050" data-name="Group 1050" transform="translate(0 0.001)">
              <path id="Path_6146" data-name="Path 6146" d="M600.442,151.6h-7.179V160.5H606.3a3.053,3.053,0,0,1,3.495-3.755,4.287,4.287,0,0,1,5.871-5.683,3.057,3.057,0,0,1,3.725-3.653V117.537H584.37v7.935h-7.935V160.5H585.6V143.943h14.841a1.442,1.442,0,0,0,1.44-1.44v-6.97a1.442,1.442,0,0,0-1.44-1.44H585.191V126.43h15.251a9.112,9.112,0,0,1,9.1,9.1v6.97A9.112,9.112,0,0,1,600.442,151.6Z" transform="translate(-576.435 -117.537)" fill="#fff"/>
            </g>
          </g>
        </g>
      </g>
    </g>
    <g id="Mask_Group_12" data-name="Mask Group 12" transform="translate(0 292)" clip-path="url(#clip-path-2)">
      <g id="Page-1" transform="translate(581.684 917.143)">
        <g id="Group">
          <rect id="Rectangle" width="754.632" height="413.713" fill="#e2543c"/>
          <g id="artsplash" transform="translate(178.498 157.114)">
            <path id="Path-2" d="M229.931,54.106h29.489l-3.04,12.457H233.121Z" transform="translate(135.784 31.987)" fill="#fff" fill-rule="evenodd" opacity="0.496"/>
            <ellipse id="Oval" cx="5.016" cy="5.075" rx="5.016" ry="5.075" transform="translate(348.538 72.713)" fill="#fff" opacity="0.496"/>
            <path id="Path-3" d="M241.869,38.544h-4.107v9.079h4.414Z" transform="translate(140.414 22.788)" fill="#fff" fill-rule="evenodd" opacity="0.496"/>
            <path id="Path-4" d="M199.288,49.389q-.456-3.845,2.736-3.383t1.52.769a2.065,2.065,0,0,1,2.888-.308,2.254,2.254,0,0,1,.608,2.922q-1.52,1.23-1.064,1.846c.456.615-1.824,3.076-3.192,2.307a3.186,3.186,0,0,1-1.824-2.615A2.017,2.017,0,0,0,199.288,49.389Z" transform="translate(117.634 27.169)" fill="#fff" fill-rule="evenodd" opacity="0.496"/>
            <path id="Path-5" d="M235.434,59.421H201.082l5.168,4.306h23.256Z" transform="translate(118.728 35.13)" fill="#fff" fill-rule="evenodd" opacity="0.496"/>
            <path id="Path-7" d="M202.314,59.228q-.608,4.46-3.8,4.921t-12.464-.461a8.729,8.729,0,0,1-2.736-4.46" transform="translate(108.224 35.016)" fill="#fff" fill-rule="evenodd" opacity="0.496"/>
            <path id="Path-6" d="M189.546,20.954h6.688v14.3q4.712,2.306,6.08,8.15t0,7.228h-19V42.485q2.128-5.689,6.232-7.227" transform="translate(108.224 12.388)" fill="#fff" fill-rule="evenodd" opacity="0.496"/>
            <rect id="Rectangle-2" width="5.472" height="20.301" rx="1.525" transform="translate(275.882 46.875)" fill="#fff" opacity="0.496"/>
            <rect id="Rectangle-2-Copy-2" width="5.472" height="20.301" rx="1.525" transform="translate(261.29 46.875)" fill="#fff" opacity="0.496"/>
            <path id="Rectangle-2-Copy" d="M171.316,29.459h.619a2.426,2.426,0,0,1,2.426,2.426v9.262H168.89V31.886A2.426,2.426,0,0,1,171.316,29.459Z" transform="translate(99.696 17.416)" fill="#fff" fill-rule="evenodd" opacity="0.496"/>
            <rect id="Rectangle-3" width="17.632" height="3.999" rx="1.256" transform="translate(229.37 25.037)" fill="#fff" opacity="0.496"/>
            <rect id="Rectangle-3-Copy" width="5.472" height="16.302" rx="1.525" transform="translate(227.85 27.805)" fill="#fff" opacity="0.496"/>
            <path id="Path-8" d="M136.315,45.358h44.537q-8.664-7.075-22.42-6.306c-13.756.769-14.212,1.538-15.124,2.153Q142.4,41.821,136.315,45.358Z" transform="translate(80.438 23.044)" fill="#fff" fill-rule="evenodd" opacity="0.496"/>
            <path id="Path-11" d="M109.371,37.765l-3.344,2.461-3.952-3.691-3.04.923H97.211l-1.824-.615-.912-1.23.912-2.768.456-.769L97.211,31l1.368-.615,2.128.615.912.615-.912-2V28.229l.912-.923.912-.923.608-.308,1.824.308h.456l1.064.923.608.308.912,2L107.091,31l-.3,1.077-.3.769.3,1.538.3,1.23.608.923,1.064.923Z" transform="translate(55.702 15.416)" fill="#fff" fill-rule="evenodd" opacity="0.496"/>
            <path id="Path-10" d="M63.716,39.771q2.888-3.845,6.08-3.537t3.8,2.461l1.976.769,1.52-.308,1.216-.769,1.368-.923,2.432-.615h.76l1.216.308,1.216.834.456.7L74.736,55l-1.9-1.692Z" transform="translate(37.517 21.408)" fill="#fff" fill-rule="evenodd" opacity="0.496"/>
            <rect id="Rectangle-4" width="2.432" height="10.15" rx="0.764" transform="translate(73.113 82.863)" fill="#fff" opacity="0.496"/>
            <rect id="Rectangle-4-Copy" width="2.432" height="6.459" rx="0.764" transform="translate(67.336 83.478)" fill="#fff" opacity="0.496"/>
            <rect id="Rectangle-5" width="3.952" height="1.846" rx="0.58" transform="translate(69.464 84.401)" fill="#fff" opacity="0.496"/>
            <path id="Path-13" d="M31,43.329l.086,1.477a4.67,4.67,0,0,0-2.232,1.216,1.844,1.844,0,0,1-2.318.261c-.258-.261-2.061-1.444-2.49-1.33a18.661,18.661,0,0,0-3.005,1.677c-.258.261-1.46,0-2.318-1.129s-1.2-.314-1.889-.548-2.147,1.417-2.4,1.677-2.147-.261-2.662-1.042a1.545,1.545,0,0,0-1.631-.635l.086-1.624Z" transform="translate(5.839 25.616)" fill="#fff" fill-rule="evenodd" opacity="0.496"/>
            <path id="Path-13-2" data-name="Path-13" d="M42,54.106l.152,2.615A8.267,8.267,0,0,0,38.2,58.873a3.265,3.265,0,0,1-4.1.461c-.456-.461-3.648-2.556-4.408-2.354a33.033,33.033,0,0,0-5.32,2.97c-.456.461-2.584,0-4.1-2s-2.128-.556-3.344-.97-3.8,2.508-4.256,2.97-3.8-.461-4.712-1.846A2.735,2.735,0,0,0,5.063,56.98l.152-2.875Z" transform="translate(2.841 31.987)" fill="#fff" fill-rule="evenodd" opacity="0.496"/>
            <path id="Path-9" d="M182.275,67.886h23.257l-6.385,8.3ZM100.042,41.741,96.7,45.433l-4.56-3.23q-2.736,4-6.08,1.23c-3.344-2.768-.152-4.921.152-5.537s3.04-1.077,4.408,0q1.368,1.077-1.672-2,.3-4.152,2.432-3.845c2.128.308,3.5-1.692,4.408.769s.608,3.845.3,4.46-.152,2,.608,2.307a3.231,3.231,0,0,1,1.52,1.077,1.65,1.65,0,0,0,.76.615l.456.154Z" transform="translate(49.831 18.668)" fill="rgba(255,255,255,0.5)" fill-rule="evenodd"/>
            <path id="Line" d="M.1,62.418H397.731" transform="translate(-0.096 36.902)" fill="none" stroke="#fff" stroke-linecap="square" stroke-width="0.953" fill-rule="evenodd"/>
            <g id="_006-food-2" data-name="006-food-2" transform="translate(361.915 47.798)">
              <path id="Fill-1" d="M36.48,31.891a5.634,5.634,0,0,0-4.226-5.508,5.8,5.8,0,0,0,.361-2.024A5.579,5.579,0,0,0,27.132,18.7h-5.92V11.1a1.924,1.924,0,0,0-1.891-1.951h-.27V6.635a.811.811,0,1,0-1.621,0V9.144h-.27A1.924,1.924,0,0,0,15.268,11.1v7.6H9.35a5.579,5.579,0,0,0-5.484,5.658,5.8,5.8,0,0,0,.361,2.025A5.634,5.634,0,0,0,0,31.891,3.367,3.367,0,0,0,2.63,35.21L5.736,48.225a.816.816,0,0,0,.787.636H29.957a.815.815,0,0,0,.787-.636L33.85,35.209A3.366,3.366,0,0,0,36.48,31.891ZM16.889,11.1a.278.278,0,0,1,.27-.279h2.161a.278.278,0,0,1,.27.279v7.6h-2.7ZM29.322,47.189H7.159L4.315,35.277H8.565L9.929,44.8a.819.819,0,0,0,.8.714.814.814,0,0,0,.8-.958L10.2,35.277h4.273l.451,9.445a.823.823,0,0,0,.809.795h.041a.827.827,0,0,0,.77-.876L16.1,35.277H20.38l-.447,9.363a.826.826,0,0,0,.77.876h.04a.822.822,0,0,0,.809-.795L22,35.277h4.273l-1.329,9.281a.815.815,0,0,0,.8.958.819.819,0,0,0,.8-.714l1.364-9.526h4.249ZM33.2,33.6H3.281a1.689,1.689,0,0,1-1.66-1.713A3.931,3.931,0,0,1,5.484,27.9a.807.807,0,0,0,.717-.445.856.856,0,0,0-.046-.861,4.054,4.054,0,0,1-.667-2.241A3.93,3.93,0,0,1,9.35,20.372H27.132a3.93,3.93,0,0,1,3.863,3.985,4.067,4.067,0,0,1-.456,1.875H8.726a.837.837,0,0,0,0,1.673H31a3.93,3.93,0,0,1,3.862,3.986A1.689,1.689,0,0,1,33.2,33.6Z" transform="translate(0 3.428)" fill="#fff" fill-rule="evenodd"/>
              <path id="Fill-3" d="M10.572,10.766a.829.829,0,0,0,.556-.215A.851.851,0,0,0,11.2,9.358,3.693,3.693,0,0,1,10.27,6.91a6.2,6.2,0,0,1,3.647-5.132A6.2,6.2,0,0,1,17.565,6.91a3.693,3.693,0,0,1-.926,2.448.851.851,0,0,0,.067,1.193.831.831,0,0,0,1.181-.068,5.392,5.392,0,0,0,1.35-3.573c0-2.731-2.05-5.543-4.985-6.839a.83.83,0,0,0-.67,0C10.647,1.367,8.6,4.179,8.6,6.91a5.393,5.393,0,0,0,1.35,3.574A.831.831,0,0,0,10.572,10.766Z" transform="translate(5.083 0)" fill="#fff" fill-rule="evenodd"/>
            </g>
            <g id="_005-drink" data-name="005-drink" transform="translate(82.054 38.671)">
              <g id="Group-8" transform="translate(0 0)">
                <path id="Fill-7" d="M48.33,14.317a1.077,1.077,0,0,0-.217-1.48,1.013,1.013,0,0,0-.608-.207H36.926l1.182-5.658,8.865-5.059-1-1.85L36.7,5.355a1.058,1.058,0,0,0-.508.7L34.819,12.63H24.776a12.473,12.473,0,0,0-13.357-11.6A12.6,12.6,0,0,0,.123,14.747,12.5,12.5,0,0,0,12.458,26.389a12.033,12.033,0,0,0,6.5-1.894l9.993,13.884V54.965H22.766a3.176,3.176,0,0,0,0,6.351H37.2a3.176,3.176,0,0,0,0-6.351H31.013V38.379Zm-11.846.429h8.979L41.586,20.13l-.052-.053a5.3,5.3,0,0,0-5.915-1.185ZM12.458,24.272A10.449,10.449,0,0,1,2.15,13.689,10.449,10.449,0,0,1,12.458,3.1,10.428,10.428,0,0,1,22.714,12.63h-2.08a8.325,8.325,0,0,0-9.216-7.406,8.453,8.453,0,0,0-7.213,9.463,8.324,8.324,0,0,0,9.216,7.405,8.115,8.115,0,0,0,3.062-1.033l1.237,1.723A10.02,10.02,0,0,1,12.458,24.272Zm-.824-9.955,3.624,5.035a6.109,6.109,0,0,1-8.317-2.779,6.431,6.431,0,0,1,2.706-8.54,6.109,6.109,0,0,1,8.317,2.779,6.486,6.486,0,0,1,.585,1.818H12.458a1.045,1.045,0,0,0-1.026,1.063A1.078,1.078,0,0,0,11.634,14.317Zm2.868.429H34.376l-1.229,5.887a3.272,3.272,0,0,1-3.983-.557l-.515-.529a5.311,5.311,0,0,0-7.642,0l-1.753,1.8ZM37.2,57.081a1.059,1.059,0,0,1,0,2.117H22.766a1.059,1.059,0,0,1,0-2.117ZM29.982,36.25,20.492,23.069l1.972-2.025a3.285,3.285,0,0,1,4.727,0l.515.529a5.312,5.312,0,0,0,7.642,0,3.286,3.286,0,0,1,4.727,0l.271.278Z" transform="translate(-0.079 -0.063)" fill="#fff" fill-rule="evenodd"/>
              </g>
            </g>
            <path id="_001-food-4" data-name="001-food-4" d="M197.416,36.938V18.488a1.032,1.032,0,0,0-1-1.014h-6.338a1.033,1.033,0,0,0-1,1.014V37.006c-6.271,2.23-6.738,9.124-6.6,10.542V83.367a6.019,6.019,0,0,0,6,6.083h9.474a6.019,6.019,0,0,0,6-6.083V53.023c.066-.068.066-.068.066-.135V47.48C204.154,46.061,203.687,39.168,197.416,36.938ZM191.078,22.2h4.337V19.5h-4.337Zm6.938,65.15h-9.474a4.035,4.035,0,0,1-3.469-2.095h16.412A3.829,3.829,0,0,1,198.017,87.354ZM184.541,83.3H202.02V75.866H184.541Zm0-9.462H202.02V53.9H184.541ZM202.02,47.211v4.663H184.541V47.211s-.267-6.894,5.8-8.516a.992.992,0,0,0,.734-.946V24.232h4.337V37.749a.95.95,0,0,0,.734.946C202.22,40.317,202.02,47.211,202.02,47.211Z" transform="translate(107.716 10.331)" fill="#fff" fill-rule="evenodd"/>
            <g id="_008-food" data-name="008-food" transform="translate(314.795 55.531)">
              <g id="Group-4" transform="translate(0 0)">
                <path id="Fill-1-2" data-name="Fill-1" d="M43.3,17.719H.735A.737.737,0,0,0,0,18.46,15.5,15.5,0,0,0,15.413,34.016h13.21A15.5,15.5,0,0,0,44.035,18.46.737.737,0,0,0,43.3,17.719ZM28.623,32.534H15.413A14.019,14.019,0,0,1,1.488,19.2H42.549A14.02,14.02,0,0,1,28.623,32.534Z" transform="translate(-0.001 10.432)" fill="#fff" fill-rule="evenodd"/>
                <path id="Fill-3-2" data-name="Fill-3" d="M31.707,10.405c0-.054,0-.108-.006-.19A3.07,3.07,0,0,0,29.647,7.6l.831-.839A3.994,3.994,0,0,0,30.8,1.449a3.834,3.834,0,0,0-5.424-.53c-.093.078-.184.16-.274.251l-.9.925A3.068,3.068,0,0,0,21.586.032a2.944,2.944,0,0,0-3.089,2.8c0,.054,0,.108,0,.161V4.13a2.9,2.9,0,0,0-1.464-.4c-.053,0-.108,0-.189.006a3.059,3.059,0,0,0-2.75,3.086V7.83a2.908,2.908,0,0,0-1.465-.4c-.053,0-.107,0-.188.006a3.059,3.059,0,0,0-2.75,3.086V21.512a.737.737,0,0,0,.734.741H22.9a2.966,2.966,0,0,0,2.541-4.443h.992A3.049,3.049,0,0,0,29.5,15a2.97,2.97,0,0,0-.4-1.658,2.9,2.9,0,0,0,1.745-.846A2.96,2.96,0,0,0,31.707,10.405Zm-1.9,1.046a1.454,1.454,0,0,1-1.038.432h-2.2a.741.741,0,0,0,0,1.481l.081,0a1.473,1.473,0,0,1,1.39,1.529,1.569,1.569,0,0,1-1.6,1.431H22.9a.741.741,0,0,0,0,1.481,1.482,1.482,0,0,1,0,2.963H11.154V10.514a1.575,1.575,0,0,1,1.39-1.6l.08,0A1.476,1.476,0,0,1,14.09,10.4V10.4a.737.737,0,0,0,.733.741h0a.737.737,0,0,0,.734-.74V6.81a1.575,1.575,0,0,1,1.39-1.6l.079,0a1.478,1.478,0,0,1,1.466,1.481v0a.737.737,0,0,0,.733.741h0a.738.738,0,0,0,.734-.74v-3.7l0-.082a1.46,1.46,0,0,1,1.515-1.4A1.581,1.581,0,0,1,22.9,3.121v.615a.741.741,0,0,0,.456.685.728.728,0,0,0,.8-.166l1.991-2.039c.054-.054.11-.105.168-.153a2.371,2.371,0,0,1,3.349.317,2.505,2.505,0,0,1-.215,3.328l-1.93,1.948a.745.745,0,0,0-.159.807.734.734,0,0,0,.678.457h.648a1.569,1.569,0,0,1,1.554,1.4l0,.081A1.481,1.481,0,0,1,29.808,11.451Z" transform="translate(5.725 -0.027)" fill="#fff" fill-rule="evenodd"/>
              </g>
              <path id="Fill-5" d="M6.687,23.4,26.944,2.9l1.023,1.035L7.71,24.431Z" transform="translate(3.952 1.671)" fill="#fff" fill-rule="evenodd"/>
              <path id="Fill-6" d="M17.195,6.942h1.52V3.866h-1.52Z" transform="translate(10.164 2.242)" fill="#fff" fill-rule="evenodd"/>
              <path id="Fill-7-2" data-name="Fill-7" d="M14.329,10.413h1.52V5.8h-1.52Z" transform="translate(8.47 3.385)" fill="#fff" fill-rule="evenodd"/>
              <path id="Fill-8" d="M11.463,13.884h1.52V7.732h-1.52Z" transform="translate(6.776 4.528)" fill="#fff" fill-rule="evenodd"/>
              <path id="Fill-9" d="M17.195,7.337h3.04V5.8h-3.04Z" transform="translate(10.164 3.385)" fill="#fff" fill-rule="evenodd"/>
              <path id="Fill-10" d="M15.284,9.27h4.56V7.732h-4.56Z" transform="translate(9.035 4.528)" fill="#fff" fill-rule="evenodd"/>
              <path id="Fill-11" d="M12.418,12.17H18.5V10.632h-6.08Z" transform="translate(7.34 6.242)" fill="#fff" fill-rule="evenodd"/>
              <path id="Fill-12" d="M9.643,12.1l0,0a2.539,2.539,0,0,0-3.691-.8c-.038.027-.076.056-.118.09l-.208.172-.2-.156a2.513,2.513,0,0,0-3.724.106,3.059,3.059,0,0,0,.067,4.075,2.7,2.7,0,0,0,.491.406l.486.412v.321a3.021,3.021,0,0,0,2.888,3.133,3.021,3.021,0,0,0,2.886-3.134v-.321l.511-.433A3.05,3.05,0,0,0,9.643,12.1ZM8.325,14.979l-.739.626a.648.648,0,0,0-.222.494v.626a1.813,1.813,0,0,1-1.733,1.88A1.813,1.813,0,0,1,3.9,16.726V16.1a.647.647,0,0,0-.222-.494l-.739-.626a.552.552,0,0,0-.07-.051,1.5,1.5,0,0,1-.3-.243,1.729,1.729,0,0,1-.039-2.3,1.422,1.422,0,0,1,2.124-.041.616.616,0,0,0,.063.057l.578.451a.541.541,0,0,0,.687-.009l.609-.5A1.4,1.4,0,0,1,7.721,12.1a1.5,1.5,0,0,1,.957.693A1.723,1.723,0,0,1,8.325,14.979Z" transform="translate(0.563 6.242)" fill="#fff" fill-rule="evenodd"/>
              <path id="Fill-23" d="M25.206,12.565a2.307,2.307,0,1,0,2.28,2.307A2.3,2.3,0,0,0,25.206,12.565Zm0,3.077a.769.769,0,1,1,.76-.769A.765.765,0,0,1,25.206,15.642Z" transform="translate(13.553 7.385)" fill="#fff" fill-rule="evenodd"/>
              <path id="Fill-24" d="M26.336,10.632a5.383,5.383,0,1,0,5.32,5.383A5.358,5.358,0,0,0,26.336,10.632Zm0,9.228a3.845,3.845,0,1,1,3.8-3.845A3.827,3.827,0,0,1,26.336,19.86Z" transform="translate(12.423 6.242)" fill="#fff" fill-rule="evenodd"/>
            </g>
            <g id="_007-food-1" data-name="007-food-1" transform="translate(212.649 23.191)">
              <path id="Fill-1-3" data-name="Fill-1" d="M70.877,42.17V26.045a3.669,3.669,0,0,0-3.6-3.721h-2.4a3.517,3.517,0,0,0-2.4.967,3.517,3.517,0,0,0-2.4-.967h-2.4a3.521,3.521,0,0,0-2.4.967,3.513,3.513,0,0,0-2.4-.967h-2.4a3.668,3.668,0,0,0-3.6,3.721V41.961c-2.772-1.982-6.817-3.671-12.739-4.385L36,23.9a3.558,3.558,0,0,0-3.409-4.056H21.623V8.682a1.224,1.224,0,0,1,1.2-1.241h9.61a3.668,3.668,0,0,0,3.6-3.721A3.668,3.668,0,0,0,32.435,0H21.623a7.335,7.335,0,0,0-7.207,7.441v12.4H3.444A3.505,3.505,0,0,0,0,23.4a3.62,3.62,0,0,0,.035.5L2.93,44.824A12.4,12.4,0,0,0,0,52.092a4.943,4.943,0,0,0,3.228,4.665,5.054,5.054,0,0,0,.505,6.184A7.484,7.484,0,0,0,0,69.455,7.335,7.335,0,0,0,7.207,76.9H74.481V45.89A3.668,3.668,0,0,0,70.877,42.17ZM63.668,26.045a1.224,1.224,0,0,1,1.2-1.24h2.4a1.224,1.224,0,0,1,1.2,1.24V42.17H63.668Zm-7.207,0a1.223,1.223,0,0,1,1.2-1.24h2.4a1.223,1.223,0,0,1,1.2,1.24V42.17h-4.8Zm-7.208,0a1.224,1.224,0,0,1,1.2-1.24h2.4a1.223,1.223,0,0,1,1.2,1.24V42.17H49.253ZM30.032,2.481h2.4a1.241,1.241,0,0,1,0,2.481h-2.4ZM25.227,4.961h2.4V2.481h-2.4Zm-8.408,2.48a4.889,4.889,0,0,1,4.8-4.961h1.2V4.961a3.669,3.669,0,0,0-3.6,3.721V19.844h-2.4ZM2.586,24.805l-.172-1.249A1.118,1.118,0,0,1,2.4,23.4a1.06,1.06,0,0,1,1.041-1.076H32.595A1.06,1.06,0,0,1,33.636,23.4a1.243,1.243,0,0,1-.01.152l-.174,1.253h-3.42v2.481h3.077l-.686,4.961H3.616L2.93,27.286h24.7V24.805ZM32.08,34.727l-.362,2.625c-1.287-.091-2.642-.144-4.088-.144h-2.4c-10.468,0-16.582,2.516-20.165,5.481l-1.1-7.961ZM2.4,52.092c0-.124.26-12.4,22.824-12.4h2.4c22.408,0,22.819,11.9,22.825,12.4a2.445,2.445,0,0,1-2.4,2.481H4.806A2.445,2.445,0,0,1,2.4,52.092Zm4.8,9.922a2.482,2.482,0,0,1,0-4.961H45.649a2.482,2.482,0,0,1,0,4.961Zm33.428,2.481-4.929,5.937L22.56,64.494Zm5.014,9.922H7.207a4.964,4.964,0,0,1,0-9.922h9.36l19.8,8.946L43.8,64.494h1.85a4.964,4.964,0,0,1,0,9.922ZM49.126,62.94a5,5,0,0,0,.661-5.888H67.272v12.4H52.857a7.616,7.616,0,0,0-.421-2.48h7.628V64.494H51.007A7.3,7.3,0,0,0,49.126,62.94ZM72.078,49.611h-2.4v2.481h2.4V74.416H51.007a7.45,7.45,0,0,0,1.43-2.481H69.675V54.572H52.189a5.04,5.04,0,0,0,.668-2.481H67.272V49.611H52.45a13.421,13.421,0,0,0-2.665-4.961H70.877a1.223,1.223,0,0,1,1.2,1.241Z" transform="translate(0)" fill="#fff" fill-rule="evenodd"/>
            </g>
            <g id="_002-turkey" data-name="002-turkey" transform="translate(133.609 40.109)">
              <path id="Fill-1-4" data-name="Fill-1" d="M74.885,51.561H71.2v-5c0-16.2-12.892-29.376-28.738-29.376H39.63c-3.669-2.1-6.8-3.986-8.2-5.7l-2.359-2.9.066-.055a4.9,4.9,0,0,0,.609-6.793A4.648,4.648,0,0,0,23.1,1.116a4.856,4.856,0,0,0-1.7,3.669q-.194-.035-.392-.054a4.62,4.62,0,0,0-3.449,1.1,4.9,4.9,0,0,0-.609,6.792,4.653,4.653,0,0,0,6.645.623l.065-.056,2.36,2.9a8.625,8.625,0,0,1,.744,1.1H25.644a15.214,15.214,0,0,0-8.284,2.448,9.683,9.683,0,0,1-1.654-.947l-2.986-2.215.051-.071a4.872,4.872,0,0,0,.842-3.59,4.811,4.811,0,0,0-1.889-3.147,4.608,4.608,0,0,0-3.512-.86,4.672,4.672,0,0,0-3.078,1.93,4.9,4.9,0,0,0-.762,3.984c-.131.01-.262.026-.393.047A4.674,4.674,0,0,0,.9,16.7a4.873,4.873,0,0,0-.841,3.589,4.808,4.808,0,0,0,1.888,3.147,4.609,4.609,0,0,0,3.512.86,4.675,4.675,0,0,0,3.078-1.931c.017-.023.033-.048.049-.071l2.986,2.215a7.431,7.431,0,0,1,.657.557,16.071,16.071,0,0,0-2.113,7.995,20.86,20.86,0,0,0,11.077,18.5H14.836a1.14,1.14,0,0,0,0,2.28h.408l1.216,3.107a4.7,4.7,0,0,0,4.381,3.032h48a4.7,4.7,0,0,0,4.381-3.032l1.216-3.107h.446a1.14,1.14,0,0,0,0-2.28ZM29.3,17.187c-.1-.2-.192-.384-.288-.566l2.39-2.033a34.723,34.723,0,0,0,3.757,2.6Zm-4.777-6.509a1.1,1.1,0,0,0-1.817.148,2.487,2.487,0,0,1-.536.663,2.453,2.453,0,0,1-3.5-.328,2.582,2.582,0,0,1,.321-3.581,2.45,2.45,0,0,1,3.5.329,1.1,1.1,0,0,0,1.571.147,1.157,1.157,0,0,0,.144-1.606,2.585,2.585,0,0,1,.321-3.581,2.451,2.451,0,0,1,3.5.328,2.581,2.581,0,0,1-.322,3.581,2.427,2.427,0,0,1-.736.418,1.131,1.131,0,0,0-.692.775A1.155,1.155,0,0,0,26.5,9l3.214,3.948.056.066-1.981,1.685c-.017-.022-.035-.047-.053-.069ZM14.6,24.275,16.427,21.7a62.965,62.965,0,0,0,9.242,2.983c5.115,1.391,10.4,2.831,13.369,5.03A8.817,8.817,0,0,1,40.924,41.84a8.413,8.413,0,0,1-5.541,3.474,8.293,8.293,0,0,1-6.321-1.548c-2.965-2.2-5.943-6.894-8.822-11.433A65.288,65.288,0,0,0,14.6,24.275Zm-5.783-4.63A1.095,1.095,0,0,0,7.8,19.489a1.131,1.131,0,0,0-.71.757,2.533,2.533,0,0,1-.359.779A2.462,2.462,0,0,1,5.11,22.042a2.43,2.43,0,0,1-1.852-.453,2.535,2.535,0,0,1-1-1.659,2.564,2.564,0,0,1,.444-1.892A2.46,2.46,0,0,1,4.329,17.02a2.429,2.429,0,0,1,1.852.454,1.1,1.1,0,0,0,1.558-.253,1.158,1.158,0,0,0-.248-1.593,2.583,2.583,0,0,1-.552-3.551,2.468,2.468,0,0,1,1.623-1.018,2.432,2.432,0,0,1,1.851.454,2.531,2.531,0,0,1,1,1.659,2.567,2.567,0,0,1-.443,1.892,2.474,2.474,0,0,1-.613.591,1.155,1.155,0,0,0-.024,1.863L14.4,20.533l.07.05-1.513,2.131-.068-.053Zm3.531,13.414a13.781,13.781,0,0,1,1.471-6.22c1.418,1.8,2.956,4.222,4.55,6.734,2.991,4.714,6.083,9.59,9.383,12.038a10.485,10.485,0,0,0,6.276,2.093,10.636,10.636,0,0,0,8.7-4.525,11.133,11.133,0,0,0-2.38-15.31c-3.3-2.449-8.794-3.943-14.105-5.388-2.184-.594-4.309-1.172-6.136-1.782a13,13,0,0,1,5.536-1.232h2.939l.021,0,.028,0H42.458c14.616,0,26.507,12.155,26.507,27.095v5H30.448A18.325,18.325,0,0,1,12.348,33.059ZM71.152,56.1a2.477,2.477,0,0,1-2.309,1.6h-48a2.478,2.478,0,0,1-2.31-1.6l-.884-2.26H72.036Z" transform="translate(0 0)" fill="#fff" fill-rule="evenodd"/>
              <path id="Fill-3-3" data-name="Fill-3" d="M24.015,25.69a4.212,4.212,0,0,1-.647.636,1.09,1.09,0,0,0-.109,1.661,1.4,1.4,0,0,0,.988.394,1.414,1.414,0,0,0,.877-.3,6.675,6.675,0,0,0,1.028-1.013,5.751,5.751,0,0,0,1.334-3.666,1.255,1.255,0,0,0-1.32-1.175h0a1.254,1.254,0,0,0-1.319,1.178A3.578,3.578,0,0,1,24.015,25.69Z" transform="translate(13.554 13.143)" fill="#fff" fill-rule="evenodd"/>
              <path id="Fill-4" d="M17.979,19.772c2.89.91,6.428,2.137,8.151,3.546a.992.992,0,0,0,.63.231,1.038,1.038,0,0,0,.869-.5,1.311,1.311,0,0,0-.238-1.689c-1.987-1.626-5.581-2.893-8.834-3.918a1.063,1.063,0,0,0-1.323.839A1.236,1.236,0,0,0,17.979,19.772Z" transform="translate(10.166 10.285)" fill="#fff" fill-rule="evenodd"/>
              <path id="Fill-5-2" data-name="Fill-5" d="M32.44,14.131a25.025,25.025,0,0,0-5.443-.6,1.253,1.253,0,0,0,0,2.5,22.661,22.661,0,0,1,4.936.544,1.2,1.2,0,0,0,.255.028,1.217,1.217,0,0,0,1.177-.989A1.254,1.254,0,0,0,32.44,14.131Z" transform="translate(15.248 8)" fill="#fff" fill-rule="evenodd"/>
              <path id="Fill-6-2" data-name="Fill-6" d="M34,15.571a1.041,1.041,0,0,0-1.418.548,1.163,1.163,0,0,0,.516,1.505,21.589,21.589,0,0,1,9.538,9.549,1.059,1.059,0,0,0,.94.594,1.016,1.016,0,0,0,.506-.136A1.169,1.169,0,0,0,44.51,26.1,23.792,23.792,0,0,0,34,15.571Z" transform="translate(19.202 9.143)" fill="#fff" fill-rule="evenodd"/>
            </g>
            <g id="_004-food-3" data-name="004-food-3" transform="translate(51.528 70.886)">
              <g id="Group-3" transform="translate(0 0)">
                <path id="Fill-1-5" data-name="Fill-1" d="M30.309,15.742l-.115-1.088V13.566a1.066,1.066,0,0,0-.3-.8,1.6,1.6,0,0,0-1.236-.322H15.238L3.6.556A1.593,1.593,0,0,0,1.444.341L1.3.409,1.234.477a1.9,1.9,0,0,0-.006,2.479l9.28,9.493H1.534A1.627,1.627,0,0,0,.3,12.771a1.08,1.08,0,0,0-.3.8v1.118c0,.016.006.038.006.057H0l.013.12c.006.065.008.128.02.193l.082.785c.024,7.243,6.788,13.365,15.1,13.365,8.325,0,15.1-6.144,15.1-13.406Zm-1.638-2.176a3.818,3.818,0,0,1,.407.011v1.107c0,.455-.382,1.09-.56,1.115H24.6V13.566ZM19.849,14.66A1.951,1.951,0,0,0,17.9,16.6v1.385a.84.84,0,0,1-1.68,0v-4.42h7.271v7.652a.84.84,0,0,1-1.68,0V16.6A1.952,1.952,0,0,0,19.849,14.66ZM2.024,2.171a.845.845,0,0,1-.044-.845l.106-.049.068-.071c.156-.153.467-.052.656.136L13.673,12.449h-1.6Zm-.5,11.4H15.1V15.8H1.679c-.152-.022-.45-.482-.535-.9l-.024-.242V13.578A3.163,3.163,0,0,1,1.527,13.566ZM15.214,28.087c-7.3,0-13.313-5.015-13.925-11.243a1.183,1.183,0,0,0,.387.073H15.1v1.069a1.956,1.956,0,0,0,3.912,0V16.6a.84.84,0,0,1,1.68,0v4.614a1.956,1.956,0,0,0,3.912,0v-4.3h3.916a1.176,1.176,0,0,0,.63-.2C28.606,23,22.566,28.087,15.214,28.087Z" transform="translate(0 -0.012)" fill="#fff" fill-rule="evenodd"/>
              </g>
              <path id="Fill-4-2" data-name="Fill-4" d="M12.45,17.037a13.245,13.245,0,0,1-7.707-3.356.543.543,0,0,0-.775.027.56.56,0,0,0,.03.785,14.342,14.342,0,0,0,8.34,3.649l.056,0a.556.556,0,0,0,.056-1.108Z" transform="translate(2.259 7.981)" fill="#fff" fill-rule="evenodd"/>
              <path id="Fill-5-3" data-name="Fill-5" d="M3.761,12.759a.5.5,0,0,0-.695-.1.48.48,0,0,0-.1.68,4.359,4.359,0,0,0,.593.635.5.5,0,0,0,.7-.035.479.479,0,0,0-.039-.687A3.742,3.742,0,0,1,3.761,12.759Z" transform="translate(1.694 7.41)" fill="#fff" fill-rule="evenodd"/>
            </g>
            <g id="_003-wedding-cake" data-name="003-wedding-cake" transform="translate(4.408 55.491)">
              <g id="Group-3-2" data-name="Group-3" transform="translate(0 0)">
                <path id="Fill-1-6" data-name="Fill-1" d="M43.346,40.136h-2.2V30.473a.739.739,0,0,0-.734-.743H38.937V23.04a3.7,3.7,0,0,0-3.673-3.717H33.795V15.606a3.7,3.7,0,0,0-3.673-3.717H22.775V8.5l3.409-3.144a2.993,2.993,0,0,0,0-4.46A3.5,3.5,0,0,0,22.04.509,3.5,3.5,0,0,0,17.9.888a2.991,2.991,0,0,0,0,4.46L21.306,8.5v3.39H13.959a3.7,3.7,0,0,0-3.673,3.717v3.717H8.816A3.7,3.7,0,0,0,5.143,23.04v6.69H3.673a.739.739,0,0,0-.734.743v9.663H.734A.739.739,0,0,0,0,40.88,3.7,3.7,0,0,0,3.673,44.6H40.407A3.7,3.7,0,0,0,44.08,40.88.739.739,0,0,0,43.346,40.136ZM18.881,4.256a1.506,1.506,0,0,1,0-2.267,1.988,1.988,0,0,1,2.667,0l.492.453.492-.453a2,2,0,0,1,2.667,0,1.506,1.506,0,0,1,0,2.267L22.04,7.169Zm-4.922,9.121H30.121a2.207,2.207,0,0,1,2.1,1.591,3.605,3.605,0,0,0-1.469.8,1.9,1.9,0,0,1-1.366.58,1.929,1.929,0,0,1-1.381-.58,3.358,3.358,0,0,0-4.592,0,1.924,1.924,0,0,1-2.743.012l-.012-.012a3.358,3.358,0,0,0-4.592,0,1.924,1.924,0,0,1-2.743.012l-.012-.012a3.527,3.527,0,0,0-1.469-.8A2.208,2.208,0,0,1,13.959,13.376Zm-2.2,3.122a2.839,2.839,0,0,1,.64.431,3.358,3.358,0,0,0,4.592,0,1.923,1.923,0,0,1,2.743-.012l.012.012a3.358,3.358,0,0,0,4.592,0,1.877,1.877,0,0,1,1.381-.58,1.927,1.927,0,0,1,1.381.58,3.358,3.358,0,0,0,4.592,0,3.055,3.055,0,0,1,.64-.431v2.825H11.755ZM6.612,23.04a2.217,2.217,0,0,1,2.2-2.23H35.264a2.217,2.217,0,0,1,2.2,2.23v6.69H6.612Zm-2.2,8.177H39.673v1.546A4.943,4.943,0,0,0,36.836,34.4a3.192,3.192,0,0,1-5.142,0,4.606,4.606,0,0,0-6.539-.609,4.659,4.659,0,0,0-.6.609,3.185,3.185,0,0,1-4.5.613,3.23,3.23,0,0,1-.607-.613,4.606,4.606,0,0,0-6.539-.609,4.662,4.662,0,0,0-.6.609,3.178,3.178,0,0,1-4.489.617,3.212,3.212,0,0,1-.61-.617,4.945,4.945,0,0,0-2.8-1.635Zm0,3.055a3.817,3.817,0,0,1,1.815,1.2,4.606,4.606,0,0,0,6.539.61,4.666,4.666,0,0,0,.6-.61,3.179,3.179,0,0,1,4.489-.617,3.229,3.229,0,0,1,.61.617,4.606,4.606,0,0,0,6.539.61,4.666,4.666,0,0,0,.6-.61,3.186,3.186,0,0,1,4.5-.613,3.238,3.238,0,0,1,.606.613,4.606,4.606,0,0,0,6.539.61,4.66,4.66,0,0,0,.6-.61,3.834,3.834,0,0,1,1.822-1.2v5.865H4.408Zm36,8.839H3.673a2.206,2.206,0,0,1-2.079-1.487H42.486A2.206,2.206,0,0,1,40.407,43.11Z" transform="translate(0 -0.002)" fill="#fff" fill-rule="evenodd"/>
              </g>
            </g>
            <path id="Path-5-2" data-name="Path-5" stroke="#fff" d="M0,2.441q4.925-4.882,10.712,0t9.945,0" fill="none" transform="translate(383.614 32.99) rotate(45)" stroke-linecap="round" stroke-linejoin="round" stroke-width="1.525" fill-rule="evenodd"/>
            <path id="Path-5-Copy-2" d="M0,2.441q4.925-4.882,10.712,0t9.945,0" transform="translate(134.694 16.638) rotate(-28)" fill="none" stroke="#fff" stroke-linecap="round" stroke-linejoin="round" stroke-width="1.525" fill-rule="evenodd"/>
            <path id="Path-5-Copy" d="M0,2.441q4.925-4.882,10.712,0t9.945,0" transform="translate(56.965 42.484) rotate(134)" fill="none" stroke="#fff" stroke-linecap="round" stroke-linejoin="round" stroke-width="1.525" fill-rule="evenodd"/>
            <g id="Oval-4" transform="translate(61.817 52.485)">
              <ellipse id="Ellipse_189" data-name="Ellipse 189" cx="4.86" cy="4.882" rx="4.86" ry="4.882" stroke-width="0.953" stroke="#979797" stroke-linecap="round" stroke-linejoin="round" fill="none"/>
              <ellipse id="Ellipse_190" data-name="Ellipse 190" cx="4.86" cy="4.882" rx="4.86" ry="4.882" stroke-width="1.525" stroke="#fff" stroke-linecap="round" stroke-linejoin="round" fill="none"/>
            </g>
            <g id="Oval-4-Copy" transform="translate(234.359 0)">
              <ellipse id="Ellipse_191" data-name="Ellipse 191" cx="4.86" cy="4.882" rx="4.86" ry="4.882" stroke-width="0.953" stroke="#979797" stroke-linecap="round" stroke-linejoin="round" fill="none"/>
              <ellipse id="Ellipse_192" data-name="Ellipse 192" cx="4.86" cy="4.882" rx="4.86" ry="4.882" stroke-width="1.525" stroke="#fff" stroke-linecap="round" stroke-linejoin="round" fill="none"/>
            </g>
            <g id="Oval-4-Copy-3" transform="translate(139.582 25.632)">
              <ellipse id="Ellipse_193" data-name="Ellipse 193" cx="4.86" cy="4.882" rx="4.86" ry="4.882" stroke-width="0.953" stroke="#979797" stroke-linecap="round" stroke-linejoin="round" fill="none"/>
              <ellipse id="Ellipse_194" data-name="Ellipse 194" cx="4.86" cy="4.882" rx="4.86" ry="4.882" stroke-width="1.525" stroke="#fff" stroke-linecap="round" stroke-linejoin="round" fill="none"/>
            </g>
            <g id="Oval-4-Copy-2" transform="translate(353.437 18.309)">
              <ellipse id="Ellipse_195" data-name="Ellipse 195" cx="4.86" cy="4.882" rx="4.86" ry="4.882" stroke-width="0.953" stroke="#979797" stroke-linecap="round" stroke-linejoin="round" fill="none"/>
              <ellipse id="Ellipse_196" data-name="Ellipse 196" cx="4.86" cy="4.882" rx="4.86" ry="4.882" stroke-width="1.525" stroke="#fff" stroke-linecap="round" stroke-linejoin="round" fill="none"/>
            </g>
            <path id="Path-6-Copy" d="M0,1.831Q1.181,0,3.137,1.8,4.846,3.662,6.126,3.662t2.98-1.931A4.251,4.251,0,0,1,12.166,0a4.1,4.1,0,0,1,3.007,1.731q1.581,1.931,3.077,1.931t2.98-1.931A4.333,4.333,0,0,1,24.314,0a4.081,4.081,0,0,1,3,1.731q.884,1.326,1.853,1.326" transform="matrix(0.914, 0.407, -0.407, 0.914, 79.023, 17.335)" fill="none" stroke="#fff" stroke-linecap="round" stroke-linejoin="round" stroke-width="1.525" fill-rule="evenodd"/>
            <path id="Path-6-Copy-2" d="M0,1.831Q1.181,0,3.137,1.8,4.846,3.662,6.126,3.662T9.105,1.731A4.251,4.251,0,0,1,12.166,0a4.1,4.1,0,0,1,3.007,1.731q1.581,1.931,3.077,1.931t2.98-1.931A4.333,4.333,0,0,1,24.314,0a4.081,4.081,0,0,1,3,1.731q.884,1.326,1.853,1.326" transform="translate(319.575 13.372) rotate(169)" fill="none" stroke="#fff" stroke-linecap="round" stroke-linejoin="round" stroke-width="1.525" fill-rule="evenodd"/>
            <rect id="Rectangle-6" width="14.581" height="14.647" stroke-width="1.525" fill="none" stroke="#fff" transform="matrix(0.995, 0.105, -0.105, 0.995, 5.021, 25.636)"/>
            <rect id="Rectangle-6-Copy-3" width="14.581" height="14.647" stroke-width="1.525" fill="none" stroke="#fff" transform="matrix(0.995, 0.105, -0.105, 0.995, 187.283, 26.857)"/>
            <rect id="Rectangle-6-Copy" width="8.279" height="8.316" stroke-width="0.762" fill="none" stroke="#fff" transform="matrix(-0.242, -0.97, 0.97, -0.242, 269.898, 35.223)"/>
            <rect id="Rectangle-6-Copy-2" width="8.279" height="8.316" stroke-width="0.762" fill="none" stroke="#fff" transform="matrix(0.574, 0.819, -0.819, 0.574, 329.857, 32.97)"/>
          </g>
        </g>
      </g>
    </g>
    <g id="Group_891" data-name="Group 891" transform="translate(0 264)">
      <rect id="Rectangle_361" data-name="Rectangle 361" width="76" height="76" transform="translate(599 1022)" fill="#e1523d"/>
      <rect id="Rectangle_362" data-name="Rectangle 362" width="76" height="76" transform="translate(599 1206)" fill="#4d4d4d"/>
      <rect id="Rectangle_363" data-name="Rectangle 363" width="76" height="76" transform="translate(599 1114)" fill="#f7931e"/>
    </g>
    <g id="Group_1023" data-name="Group 1023" transform="translate(0 292)">
      <g id="Rectangle_333" data-name="Rectangle 333" transform="translate(139 994)" fill="#fff" stroke="#f0f0f0" stroke-width="1">
        <rect width="444" height="260" stroke="none"/>
        <rect x="0.5" y="0.5" width="443" height="259" fill="none"/>
      </g>
      <g id="Group_1022" data-name="Group 1022" transform="translate(-110 -1996.706)">
        <g id="Group_1020" data-name="Group 1020" transform="translate(349 3100.706)">
          <path id="Path_6049" data-name="Path 6049" d="M356.367,3100.707c-.106-.106-7.367,7.367-7.367,7.367h7.367Z" transform="translate(-349 -3100.706)" fill="url(#linear-gradient-2)"/>
          <g id="Group_1018" data-name="Group 1018" transform="translate(16.894 1.999)">
            <path id="Path_6050" data-name="Path 6050" d="M413.22,3122.409v6.123a8.036,8.036,0,0,1-8.057,8h-6.355v7.66h11.543a1.567,1.567,0,0,1-.082-.493,2.7,2.7,0,0,1,2.715-2.694,2.754,2.754,0,0,1,.461.042,3.728,3.728,0,0,1-.4-1.676,3.8,3.8,0,0,1,5.594-3.317,2.686,2.686,0,0,1,2.646-3.291,1.706,1.706,0,0,1,.514.082V3106.6" transform="translate(-398.808 -3106.599)" fill="url(#linear-gradient-3)"/>
          </g>
          <g id="Group_1019" data-name="Group 1019" transform="translate(0 0.001)">
            <path id="Path_6051" data-name="Path 6051" d="M371.288,3132.111h-6.665v8.2h12.107a2.8,2.8,0,0,1-.086-.678,2.836,2.836,0,0,1,3.33-2.783,3.909,3.909,0,0,1-.416-1.759,3.985,3.985,0,0,1,5.867-3.479,2.818,2.818,0,0,1,2.775-3.452,2.878,2.878,0,0,1,.683.085v-27.533H356.367v7.315H349v32.285h8.51v-15.26h13.778a1.334,1.334,0,0,0,1.337-1.328V3117.3a1.334,1.334,0,0,0-1.337-1.328H357.129v-7.062h14.159a8.43,8.43,0,0,1,8.45,8.39v6.425A8.429,8.429,0,0,1,371.288,3132.111Z" transform="translate(-349 -3100.709)" fill="url(#linear-gradient-2)"/>
          </g>
        </g>
        <g id="Group_1021" data-name="Group 1021" transform="translate(399.551 3102.02)">
          <path id="Path_6052" data-name="Path 6052" d="M515.609,3104.581a1.075,1.075,0,0,1,.793.322,1.112,1.112,0,0,1,.343.813,1.134,1.134,0,0,1-1.135,1.115H511.39a8.482,8.482,0,0,0-8.482,8.482v3.833h11.031a1.136,1.136,0,0,1,0,2.271H502.908v12.423a1.15,1.15,0,0,1-.322.814,1.124,1.124,0,0,1-.792.321,1.1,1.1,0,0,1-1.135-1.135v-18.527a10.75,10.75,0,0,1,10.731-10.732Z" transform="translate(-500.659 -3104.581)" fill="#4d4d4d"/>
          <path id="Path_6053" data-name="Path 6053" d="M563.866,3130.978a10.337,10.337,0,0,1,7.561,3.107,10.44,10.44,0,0,1,0,14.944,10.78,10.78,0,0,1-15.143,0,10.441,10.441,0,0,1,0-14.944A10.406,10.406,0,0,1,563.866,3130.978Zm0,18.939a8.2,8.2,0,0,0,5.976-2.453,8.264,8.264,0,0,0,0-11.815,8.533,8.533,0,0,0-11.973,0,8.265,8.265,0,0,0,0,11.815A8.223,8.223,0,0,0,563.866,3149.917Z" transform="translate(-535.337 -3122.025)" fill="#4d4d4d"/>
          <path id="Path_6054" data-name="Path 6054" d="M633.393,3130.978a10.336,10.336,0,0,1,7.561,3.107,10.44,10.44,0,0,1,0,14.944,10.78,10.78,0,0,1-15.143,0,10.44,10.44,0,0,1,0-14.944A10.408,10.408,0,0,1,633.393,3130.978Zm0,18.939a8.2,8.2,0,0,0,5.976-2.453,8.264,8.264,0,0,0,0-11.815,8.533,8.533,0,0,0-11.973,0,8.263,8.263,0,0,0,0,11.815A8.222,8.222,0,0,0,633.393,3149.917Z" transform="translate(-581.281 -3122.025)" fill="#4d4d4d"/>
          <path id="Path_6055" data-name="Path 6055" d="M711.863,3104.581a1.1,1.1,0,0,1,1.135,1.135v18.549a10.713,10.713,0,1,1-3.191-7.646,1.045,1.045,0,0,1,.342.793,1.1,1.1,0,0,1-1.135,1.135,1.125,1.125,0,0,1-.793-.322,8.453,8.453,0,1,0,2.528,6.04v-18.549a1.15,1.15,0,0,1,.321-.813A1.123,1.123,0,0,1,711.863,3104.581Z" transform="translate(-626.809 -3104.581)" fill="#4d4d4d"/>
          <path id="Path_6056" data-name="Path 6056" d="M808.008,3104.581a11.117,11.117,0,1,1-7.133,19.62,1.072,1.072,0,0,1-.407-.75,1.107,1.107,0,0,1,.257-.836,1.119,1.119,0,0,1,.771-.385,1.04,1.04,0,0,1,.814.257,8.629,8.629,0,0,0,5.7,2.056,8.845,8.845,0,1,0-8.867-8.846v18.142a1.151,1.151,0,0,1-.322.814,1.125,1.125,0,0,1-.793.321,1.1,1.1,0,0,1-1.135-1.135v-18.313a11.156,11.156,0,0,1,11.117-10.946Z" transform="translate(-696.415 -3104.581)" fill="#4d4d4d"/>
          <path id="Path_6057" data-name="Path 6057" d="M878.854,3130.978a10.336,10.336,0,0,1,7.561,3.107,10.132,10.132,0,0,1,3.149,7.483v9.448a1.128,1.128,0,0,1-.321.8,1.16,1.16,0,0,1-.814.317,1.09,1.09,0,0,1-1.114-1.12v-9.448a8.011,8.011,0,0,0-2.485-5.918,8.533,8.533,0,0,0-11.973,0,8.266,8.266,0,0,0,0,11.815,8.534,8.534,0,0,0,11.931.043,1.13,1.13,0,0,1,.792-.317,1.156,1.156,0,0,1,.814.317,1.127,1.127,0,0,1,.322.8,1.025,1.025,0,0,1-.343.782,10.807,10.807,0,0,1-15.1-.063,10.441,10.441,0,0,1,0-14.944A10.407,10.407,0,0,1,878.854,3130.978Z" transform="translate(-743.486 -3122.025)" fill="#4d4d4d"/>
          <path id="Path_6058" data-name="Path 6058" d="M949.645,3130.915a10.75,10.75,0,0,1,10.71,10.731v9.574a10.723,10.723,0,0,1-18.249,7.646,1.155,1.155,0,0,1-.343-.792,1.111,1.111,0,0,1,.343-.814,1.137,1.137,0,0,1,1.585,0,8.471,8.471,0,0,0,14.415-6.04v-9.574a8.483,8.483,0,1,0-2.528,6.019,1.138,1.138,0,0,1,1.607.021,1.077,1.077,0,0,1,.321.792,1.043,1.043,0,0,1-.343.792,10.716,10.716,0,1,1-7.518-18.356Z" transform="translate(-790.266 -3122.266)" fill="#4d4d4d"/>
          <path id="Path_6059" data-name="Path 6059" d="M1030.48,3138.038a1.408,1.408,0,0,1-.043.613,1.023,1.023,0,0,1-.621.592l-16.643,6.6a8.5,8.5,0,0,0,3.02,2.959,8.369,8.369,0,0,0,4.241,1.12,8.045,8.045,0,0,0,6.661-3.234,1.173,1.173,0,0,1,.771-.423,1.136,1.136,0,0,1,.814.233,1.031,1.031,0,0,1,.428.74,1.055,1.055,0,0,1-.214.824,10.283,10.283,0,0,1-8.46,4.079,10.684,10.684,0,0,1-9.875-6.447l-.021-.042a10.438,10.438,0,0,1,2.313-11.562,10.406,10.406,0,0,1,7.582-3.107,10.53,10.53,0,0,1,6.04,1.861,9.5,9.5,0,0,1,3.706,4.29A3.175,3.175,0,0,1,1030.48,3138.038Zm-18.527,3.53a8.017,8.017,0,0,0,.322,2.22l15.614-6.173a8.548,8.548,0,0,0-3.106-3.213,8.4,8.4,0,0,0-4.348-1.2,8.229,8.229,0,0,0-6,2.452A8.011,8.011,0,0,0,1011.953,3141.568Z" transform="translate(-837.046 -3122.025)" fill="#4d4d4d"/>
        </g>
      </g>
    </g>
    <g id="Group_1048" data-name="Group 1048" transform="translate(276 292)">
      <g id="Rectangle_354" data-name="Rectangle 354" transform="translate(139 1274)" fill="#fff" stroke="#f0f0f0" stroke-width="1">
        <rect width="812" height="260" stroke="none"/>
        <rect x="0.5" y="0.5" width="811" height="259" fill="none"/>
      </g>
      <g id="Group_1047" data-name="Group 1047" transform="translate(41.078 179.037)">
        <g id="Group_1026" data-name="Group 1026" transform="translate(260.91 1219.15)">
          <g id="Group_1024" data-name="Group 1024" transform="translate(1.622 0)">
            <path id="Path_6060" data-name="Path 6060" d="M316.624,1250.99h-7.1v7.472h-2.231v-16.92h10.481v1.824h-8.25v5.8h7.1Z" transform="translate(-307.294 -1240.613)" fill="#e1523d"/>
            <path id="Path_6061" data-name="Path 6061" d="M330.145,1257.912h-2.151v-17.849h2.151Z" transform="translate(-314.992 -1240.063)" fill="#e1523d"/>
            <path id="Path_6062" data-name="Path 6062" d="M336.912,1242.416a1.283,1.283,0,0,1,.319-.883,1.2,1.2,0,0,1,.947-.36,1.217,1.217,0,0,1,.953.36,1.27,1.27,0,0,1,.325.883,1.273,1.273,0,1,1-2.545,0Zm2.323,15.909h-2.149v-12.573h2.149Z" transform="translate(-318.308 -1240.476)" fill="#e1523d"/>
            <path id="Path_6063" data-name="Path 6063" d="M356.709,1254.75a7.53,7.53,0,0,1-1.313,4.625,4.21,4.21,0,0,1-3.557,1.755,4.608,4.608,0,0,1-3.6-1.453v6.054h-2.149v-17.407h1.964l.1,1.394a4.428,4.428,0,0,1,3.648-1.627,4.288,4.288,0,0,1,3.585,1.708,7.609,7.609,0,0,1,1.319,4.753Zm-2.149-.244a5.554,5.554,0,0,0-.906-3.358,2.918,2.918,0,0,0-2.487-1.232,3.16,3.16,0,0,0-2.928,1.731v6.007a3.165,3.165,0,0,0,2.952,1.72,2.9,2.9,0,0,0,2.457-1.225A6.062,6.062,0,0,0,354.559,1254.507Z" transform="translate(-321.72 -1243.049)" fill="#e1523d"/>
            <path id="Path_6064" data-name="Path 6064" d="M377.965,1254.75a7.526,7.526,0,0,1-1.313,4.625,4.21,4.21,0,0,1-3.556,1.755,4.611,4.611,0,0,1-3.6-1.453v6.054h-2.149v-17.407h1.964l.1,1.394a4.429,4.429,0,0,1,3.648-1.627,4.286,4.286,0,0,1,3.585,1.708,7.6,7.6,0,0,1,1.319,4.753Zm-2.15-.244a5.55,5.55,0,0,0-.906-3.358,2.918,2.918,0,0,0-2.487-1.232,3.16,3.16,0,0,0-2.928,1.731v6.007a3.166,3.166,0,0,0,2.952,1.72,2.906,2.906,0,0,0,2.458-1.225A6.067,6.067,0,0,0,375.815,1254.507Z" transform="translate(-329.624 -1243.049)" fill="#e1523d"/>
            <path id="Path_6065" data-name="Path 6065" d="M393.494,1261.13a5.493,5.493,0,0,1-4.16-1.68,6.232,6.232,0,0,1-1.6-4.491v-.4a7.54,7.54,0,0,1,.715-3.34,5.578,5.578,0,0,1,2-2.3,5.023,5.023,0,0,1,2.783-.831,4.71,4.71,0,0,1,3.812,1.615,7,7,0,0,1,1.359,4.624v.9H389.88a4.466,4.466,0,0,0,1.087,3,3.413,3.413,0,0,0,2.643,1.144,3.74,3.74,0,0,0,1.929-.465,4.847,4.847,0,0,0,1.383-1.232l1.313,1.023A5.28,5.28,0,0,1,393.494,1261.13Zm-.268-11.272a2.869,2.869,0,0,0-2.185.947,4.6,4.6,0,0,0-1.092,2.655h6.3v-.163a4.1,4.1,0,0,0-.883-2.54A2.7,2.7,0,0,0,393.226,1249.858Z" transform="translate(-337.205 -1243.049)" fill="#e1523d"/>
            <path id="Path_6066" data-name="Path 6066" d="M407.84,1251.521a7.362,7.362,0,0,1,1.371-4.654,4.665,4.665,0,0,1,7.089-.25v-6.554h2.149v17.849h-1.975l-.1-1.348a4.378,4.378,0,0,1-3.591,1.58,4.3,4.3,0,0,1-3.562-1.79,7.45,7.45,0,0,1-1.376-4.671Zm2.15.244a5.573,5.573,0,0,0,.883,3.347,2.854,2.854,0,0,0,2.44,1.208,3.135,3.135,0,0,0,2.986-1.836v-5.775a3.16,3.16,0,0,0-2.963-1.778,2.868,2.868,0,0,0-2.464,1.22A6.138,6.138,0,0,0,409.99,1251.765Z" transform="translate(-344.683 -1240.063)" fill="#e1523d"/>
            <path id="Path_6067" data-name="Path 6067" d="M442.186,1251.839v6.624h-2.231v-16.92h6.24a6.266,6.266,0,0,1,4.351,1.418,4.8,4.8,0,0,1,1.575,3.753,4.744,4.744,0,0,1-1.54,3.794,6.549,6.549,0,0,1-4.41,1.331Zm0-1.825h4.009a4.008,4.008,0,0,0,2.742-.844,3.087,3.087,0,0,0,.952-2.439,3.187,3.187,0,0,0-.952-2.421,3.757,3.757,0,0,0-2.615-.943h-4.137Z" transform="translate(-356.625 -1240.613)" fill="#e1523d"/>
            <path id="Path_6068" data-name="Path 6068" d="M470.666,1260.9a4.493,4.493,0,0,1-.3-1.325,4.8,4.8,0,0,1-3.579,1.557,4.436,4.436,0,0,1-3.05-1.052,3.4,3.4,0,0,1-1.191-2.667,3.556,3.556,0,0,1,1.493-3.051,7.041,7.041,0,0,1,4.2-1.086h2.092v-.987a2.417,2.417,0,0,0-.674-1.8,2.711,2.711,0,0,0-1.987-.668,3.135,3.135,0,0,0-1.928.581,1.712,1.712,0,0,0-.779,1.406H462.8a2.968,2.968,0,0,1,.669-1.818,4.564,4.564,0,0,1,1.812-1.389,6.1,6.1,0,0,1,2.516-.511,4.968,4.968,0,0,1,3.405,1.087,3.914,3.914,0,0,1,1.278,2.992v5.787a7.073,7.073,0,0,0,.442,2.754v.186Zm-3.568-1.639a3.782,3.782,0,0,0,1.918-.523,3.171,3.171,0,0,0,1.313-1.36v-2.58h-1.685q-3.951,0-3.952,2.313a1.954,1.954,0,0,0,.674,1.58A2.589,2.589,0,0,0,467.1,1259.259Z" transform="translate(-365.025 -1243.049)" fill="#e1523d"/>
            <path id="Path_6069" data-name="Path 6069" d="M482.91,1254.507a7.4,7.4,0,0,1,1.36-4.678,4.687,4.687,0,0,1,7.193-.11l.1-1.394h1.964V1260.6a5.114,5.114,0,0,1-1.447,3.846,5.34,5.34,0,0,1-3.887,1.406,6.47,6.47,0,0,1-2.661-.58,4.591,4.591,0,0,1-1.987-1.592l1.116-1.29a4.2,4.2,0,0,0,3.382,1.708,3.3,3.3,0,0,0,2.446-.883,3.378,3.378,0,0,0,.878-2.487v-1.081a4.417,4.417,0,0,1-3.521,1.488,4.3,4.3,0,0,1-3.573-1.778A7.769,7.769,0,0,1,482.91,1254.507Zm2.162.244a5.638,5.638,0,0,0,.871,3.341,2.831,2.831,0,0,0,2.44,1.214,3.15,3.15,0,0,0,2.987-1.848v-5.74a3.186,3.186,0,0,0-2.964-1.8,2.857,2.857,0,0,0-2.452,1.22A6.137,6.137,0,0,0,485.072,1254.75Z" transform="translate(-372.599 -1243.049)" fill="#e1523d"/>
            <path id="Path_6070" data-name="Path 6070" d="M509.875,1261.13a5.494,5.494,0,0,1-4.16-1.68,6.234,6.234,0,0,1-1.6-4.491v-.4a7.531,7.531,0,0,1,.715-3.34,5.564,5.564,0,0,1,2-2.3,5.021,5.021,0,0,1,2.782-.831,4.709,4.709,0,0,1,3.812,1.615,6.992,6.992,0,0,1,1.359,4.624v.9h-8.518a4.469,4.469,0,0,0,1.087,3,3.414,3.414,0,0,0,2.644,1.144,3.736,3.736,0,0,0,1.928-.465,4.839,4.839,0,0,0,1.383-1.232l1.314,1.023A5.28,5.28,0,0,1,509.875,1261.13Zm-.268-11.272a2.867,2.867,0,0,0-2.184.947,4.6,4.6,0,0,0-1.092,2.655h6.3v-.163a4.1,4.1,0,0,0-.883-2.54A2.7,2.7,0,0,0,509.607,1249.858Z" transform="translate(-380.483 -1243.049)" fill="#e1523d"/>
          </g>
          <g id="Group_1025" data-name="Group 1025" transform="translate(0 33.608)">
            <path id="Path_6071" data-name="Path 6071" d="M312.562,1278.038H309.3v9.057h-1.332v-9.057h-3.256v-1.095h7.851Z" transform="translate(-304.711 -1276.385)" fill="#e1523d"/>
            <path id="Path_6072" data-name="Path 6072" d="M322.56,1288.556a2.69,2.69,0,0,1-.181-.795,2.877,2.877,0,0,1-2.148.935,2.665,2.665,0,0,1-1.83-.631,2.042,2.042,0,0,1-.714-1.6,2.132,2.132,0,0,1,.9-1.83,4.223,4.223,0,0,1,2.521-.652h1.254v-.593a1.448,1.448,0,0,0-.4-1.077,1.624,1.624,0,0,0-1.192-.4,1.878,1.878,0,0,0-1.158.349,1.027,1.027,0,0,0-.467.843h-1.3a1.779,1.779,0,0,1,.4-1.09,2.737,2.737,0,0,1,1.088-.833,3.652,3.652,0,0,1,1.509-.307,2.984,2.984,0,0,1,2.043.651,2.358,2.358,0,0,1,.768,1.8v3.472a4.235,4.235,0,0,0,.265,1.653v.111Zm-2.14-.982a2.263,2.263,0,0,0,1.15-.314,1.89,1.89,0,0,0,.788-.816V1284.9h-1.011q-2.371,0-2.371,1.388a1.174,1.174,0,0,0,.405.948A1.554,1.554,0,0,0,320.42,1287.573Z" transform="translate(-309.537 -1277.847)" fill="#e1523d"/>
            <path id="Path_6073" data-name="Path 6073" d="M331.616,1281.012l.041.948a2.749,2.749,0,0,1,2.259-1.087q2.39,0,2.412,2.7v4.985h-1.29v-4.992a1.737,1.737,0,0,0-.373-1.206,1.493,1.493,0,0,0-1.14-.391,1.859,1.859,0,0,0-1.1.335,2.269,2.269,0,0,0-.74.878v5.376H330.4v-7.543Z" transform="translate(-314.262 -1277.847)" fill="#e1523d"/>
            <path id="Path_6074" data-name="Path 6074" d="M342.45,1284.722a4.432,4.432,0,0,1,.816-2.807,2.813,2.813,0,0,1,4.315-.067l.063-.836h1.178v7.362a3.067,3.067,0,0,1-.869,2.308,3.2,3.2,0,0,1-2.332.844,3.878,3.878,0,0,1-1.6-.349,2.748,2.748,0,0,1-1.192-.955l.67-.774a2.521,2.521,0,0,0,2.028,1.025,1.977,1.977,0,0,0,1.468-.53,2.024,2.024,0,0,0,.526-1.492v-.648a2.652,2.652,0,0,1-2.112.893,2.579,2.579,0,0,1-2.144-1.067A4.663,4.663,0,0,1,342.45,1284.722Zm1.3.146a3.382,3.382,0,0,0,.523,2,1.7,1.7,0,0,0,1.464.729,1.889,1.889,0,0,0,1.792-1.109v-3.445a1.912,1.912,0,0,0-1.778-1.08,1.715,1.715,0,0,0-1.472.732A3.685,3.685,0,0,0,343.748,1284.868Z" transform="translate(-318.745 -1277.847)" fill="#e1523d"/>
            <path id="Path_6075" data-name="Path 6075" d="M355.7,1277.467a.77.77,0,0,1,.192-.53.722.722,0,0,1,.568-.216.732.732,0,0,1,.572.216.764.764,0,0,1,.2.53.736.736,0,0,1-.2.523.745.745,0,0,1-.572.209.734.734,0,0,1-.568-.209A.742.742,0,0,1,355.7,1277.467Zm1.4,9.545h-1.29v-7.543h1.29Z" transform="translate(-323.673 -1276.303)" fill="#e1523d"/>
            <path id="Path_6076" data-name="Path 6076" d="M367.6,1283.076a4.484,4.484,0,0,1-.8,2.778,2.538,2.538,0,0,1-2.133,1.05,2.63,2.63,0,0,1-2.21-1.011l-.063.871h-1.185v-10.709h1.29v4a2.613,2.613,0,0,1,2.154-.969,2.556,2.556,0,0,1,2.158,1.038,4.62,4.62,0,0,1,.785,2.845Zm-1.29-.146a3.489,3.489,0,0,0-.509-2.036,1.687,1.687,0,0,0-1.464-.718,1.893,1.893,0,0,0-1.834,1.185v3.263a1.946,1.946,0,0,0,1.847,1.185,1.676,1.676,0,0,0,1.443-.719A3.707,3.707,0,0,0,366.306,1282.93Z" transform="translate(-325.72 -1276.055)" fill="#e1523d"/>
            <path id="Path_6077" data-name="Path 6077" d="M375.43,1286.764h-1.289v-10.709h1.289Z" transform="translate(-330.529 -1276.055)" fill="#e1523d"/>
            <path id="Path_6078" data-name="Path 6078" d="M382.416,1288.7a3.3,3.3,0,0,1-2.5-1.008,3.744,3.744,0,0,1-.962-2.695v-.237a4.527,4.527,0,0,1,.43-2,3.341,3.341,0,0,1,1.2-1.381,3.018,3.018,0,0,1,1.67-.5,2.825,2.825,0,0,1,2.287.969,4.194,4.194,0,0,1,.815,2.774v.537h-5.109a2.68,2.68,0,0,0,.651,1.8,2.048,2.048,0,0,0,1.586.687,2.252,2.252,0,0,0,1.157-.278,2.911,2.911,0,0,0,.83-.739l.788.614A3.169,3.169,0,0,1,382.416,1288.7Zm-.16-6.763a1.721,1.721,0,0,0-1.311.568,2.763,2.763,0,0,0-.655,1.593h3.779v-.1a2.458,2.458,0,0,0-.53-1.523A1.621,1.621,0,0,0,382.255,1281.933Z" transform="translate(-332.32 -1277.847)" fill="#e1523d"/>
            <path id="Path_6079" data-name="Path 6079" d="M403.21,1282.4h-4.4v3.6h5.11v1.094h-6.448v-10.151h6.379v1.095h-5.041v3.27h4.4Z" transform="translate(-339.206 -1276.385)" fill="#e1523d"/>
            <path id="Path_6080" data-name="Path 6080" d="M411.538,1286.764h-1.29v-10.709h1.29Z" transform="translate(-343.956 -1276.055)" fill="#e1523d"/>
            <path id="Path_6081" data-name="Path 6081" d="M418.523,1288.7a3.3,3.3,0,0,1-2.495-1.008,3.739,3.739,0,0,1-.963-2.695v-.237a4.527,4.527,0,0,1,.429-2,3.348,3.348,0,0,1,1.2-1.381,3.016,3.016,0,0,1,1.67-.5,2.825,2.825,0,0,1,2.287.969,4.2,4.2,0,0,1,.815,2.774v.537h-5.111a2.68,2.68,0,0,0,.651,1.8,2.049,2.049,0,0,0,1.587.687,2.253,2.253,0,0,0,1.157-.278,2.922,2.922,0,0,0,.83-.739l.788.614A3.169,3.169,0,0,1,418.523,1288.7Zm-.16-6.763a1.719,1.719,0,0,0-1.311.568,2.755,2.755,0,0,0-.655,1.593h3.778v-.1a2.45,2.45,0,0,0-.53-1.523A1.619,1.619,0,0,0,418.363,1281.933Z" transform="translate(-345.747 -1277.847)" fill="#e1523d"/>
            <path id="Path_6082" data-name="Path 6082" d="M428.839,1281.012l.035.836a2.788,2.788,0,0,1,2.238-.975,2.155,2.155,0,0,1,2.154,1.213,2.808,2.808,0,0,1,2.406-1.213q2.483,0,2.524,2.628v5.055h-1.29v-4.978a1.731,1.731,0,0,0-.37-1.21,1.626,1.626,0,0,0-1.241-.4,1.713,1.713,0,0,0-1.193.429,1.741,1.741,0,0,0-.551,1.154v5.006h-1.3v-4.943a1.439,1.439,0,0,0-1.61-1.646,1.727,1.727,0,0,0-1.737,1.08v5.508h-1.29v-7.543Z" transform="translate(-350.416 -1277.847)" fill="#e1523d"/>
            <path id="Path_6083" data-name="Path 6083" d="M450.491,1288.7a3.3,3.3,0,0,1-2.5-1.008,3.741,3.741,0,0,1-.962-2.695v-.237a4.528,4.528,0,0,1,.428-2,3.345,3.345,0,0,1,1.2-1.381,3.011,3.011,0,0,1,1.67-.5,2.825,2.825,0,0,1,2.287.969,4.2,4.2,0,0,1,.816,2.774v.537h-5.111a2.68,2.68,0,0,0,.652,1.8,2.049,2.049,0,0,0,1.586.687,2.255,2.255,0,0,0,1.158-.278,2.911,2.911,0,0,0,.83-.739l.787.614A3.167,3.167,0,0,1,450.491,1288.7Zm-.16-6.763a1.72,1.72,0,0,0-1.311.568,2.768,2.768,0,0,0-.656,1.593h3.78v-.1a2.462,2.462,0,0,0-.53-1.523A1.621,1.621,0,0,0,450.331,1281.933Z" transform="translate(-357.635 -1277.847)" fill="#e1523d"/>
            <path id="Path_6084" data-name="Path 6084" d="M460.818,1281.012l.041.948a2.75,2.75,0,0,1,2.259-1.087q2.39,0,2.412,2.7v4.985h-1.29v-4.992a1.737,1.737,0,0,0-.373-1.206,1.494,1.494,0,0,0-1.14-.391,1.859,1.859,0,0,0-1.1.335,2.274,2.274,0,0,0-.74.878v5.376H459.6v-7.543Z" transform="translate(-362.307 -1277.847)" fill="#e1523d"/>
            <path id="Path_6085" data-name="Path 6085" d="M473.35,1278.187v1.827h1.408v1H473.35v4.684a1.043,1.043,0,0,0,.189.681.792.792,0,0,0,.641.227,3.119,3.119,0,0,0,.614-.083v1.04a3.77,3.77,0,0,1-.991.139,1.608,1.608,0,0,1-1.3-.523,2.244,2.244,0,0,1-.439-1.485v-4.678h-1.373v-1h1.373v-1.827Z" transform="translate(-366.431 -1276.848)" fill="#e1523d"/>
          </g>
        </g>
        <g id="Group_1027" data-name="Group 1027" transform="translate(235.8 1183.824)">
          <path id="Path_6086" data-name="Path 6086" d="M265.854,1197.889a1.118,1.118,0,0,1-.339-2.183c4.357-1.388,8.812-2.675,13.239-3.825a1.118,1.118,0,0,1,.562,2.165c-4.388,1.139-8.8,2.414-13.122,3.791A1.12,1.12,0,0,1,265.854,1197.889Zm148.672-1.254a1.127,1.127,0,0,1-.322-.048c-4.342-1.3-8.778-2.5-13.183-3.568a1.118,1.118,0,0,1,.525-2.173c4.445,1.074,8.92,2.285,13.3,3.6a1.118,1.118,0,0,1-.321,2.189ZM292.4,1191a1.118,1.118,0,0,1-.22-2.214c4.479-.905,9.047-1.7,13.577-2.36a1.118,1.118,0,0,1,.323,2.212c-4.49.655-9.018,1.442-13.457,2.339A1.124,1.124,0,0,1,292.4,1191Zm95.463-.805a1.125,1.125,0,0,1-.2-.018c-4.456-.823-9-1.533-13.494-2.112a1.118,1.118,0,0,1,.286-2.217c4.538.583,9.119,1.3,13.614,2.131a1.118,1.118,0,0,1-.2,2.217Zm-68.322-3.153a1.118,1.118,0,0,1-.1-2.231c4.553-.412,9.18-.7,13.754-.867a1.118,1.118,0,0,1,.079,2.234c-4.532.162-9.119.452-13.632.86C319.611,1187.037,319.577,1187.039,319.543,1187.039Zm41.119-.346c-.028,0-.055,0-.084,0-4.519-.333-9.11-.544-13.643-.63a1.118,1.118,0,0,1,.02-2.236h.021c4.575.086,9.206.3,13.766.635a1.118,1.118,0,0,1-.081,2.233Z" transform="translate(-264.735 -1183.824)" fill="#e1523d"/>
        </g>
        <g id="Group_1028" data-name="Group 1028" transform="translate(385.129 1191.485)">
          <path id="Path_6087" data-name="Path 6087" d="M509.823,1210.728a7.353,7.353,0,1,1,7.353-7.353A7.362,7.362,0,0,1,509.823,1210.728Zm0-13.788a6.434,6.434,0,1,0,6.434,6.435A6.442,6.442,0,0,0,509.823,1196.94Z" transform="translate(-502.469 -1196.021)" fill="#e1523d"/>
        </g>
        <g id="Group_1029" data-name="Group 1029" transform="translate(466.976 1183.824)">
          <path id="Path_6088" data-name="Path 6088" d="M633.887,1197.889a1.118,1.118,0,0,1-.339-2.183c4.357-1.388,8.812-2.675,13.239-3.825a1.118,1.118,0,1,1,.562,2.165c-4.388,1.139-8.8,2.414-13.122,3.791A1.117,1.117,0,0,1,633.887,1197.889Zm148.672-1.254a1.123,1.123,0,0,1-.322-.048c-4.342-1.3-8.778-2.5-13.184-3.568a1.118,1.118,0,0,1,.525-2.173c4.445,1.074,8.92,2.285,13.3,3.6a1.118,1.118,0,0,1-.321,2.189ZM660.435,1191a1.118,1.118,0,0,1-.22-2.214c4.479-.905,9.046-1.7,13.577-2.36a1.118,1.118,0,1,1,.323,2.212c-4.49.656-9.018,1.443-13.457,2.339A1.076,1.076,0,0,1,660.435,1191Zm95.465-.805a1.13,1.13,0,0,1-.2-.018c-4.456-.823-9-1.533-13.494-2.112a1.118,1.118,0,0,1,.286-2.217c4.538.583,9.119,1.3,13.614,2.131a1.118,1.118,0,0,1-.2,2.217Zm-68.323-3.153a1.118,1.118,0,0,1-.1-2.231c4.553-.412,9.18-.7,13.754-.867a1.118,1.118,0,1,1,.08,2.234c-4.533.162-9.119.452-13.632.86C687.645,1187.037,687.611,1187.039,687.577,1187.039Zm41.119-.346c-.028,0-.055,0-.083,0-4.519-.333-9.11-.544-13.644-.63a1.118,1.118,0,0,1,.02-2.236h.021c4.575.086,9.206.3,13.766.635a1.118,1.118,0,0,1-.081,2.233Z" transform="translate(-632.769 -1183.824)" fill="#e1523d"/>
        </g>
        <g id="Group_1030" data-name="Group 1030" transform="translate(616.305 1191.485)">
          <path id="Path_6089" data-name="Path 6089" d="M877.856,1210.728a7.353,7.353,0,1,1,7.354-7.353A7.362,7.362,0,0,1,877.856,1210.728Zm0-13.788a6.434,6.434,0,1,0,6.435,6.435A6.442,6.442,0,0,0,877.856,1196.94Z" transform="translate(-870.502 -1196.021)" fill="#e1523d"/>
        </g>
        <g id="Group_1031" data-name="Group 1031" transform="translate(511.166 1210.614)">
          <path id="Path_6090" data-name="Path 6090" d="M723.908,1234.521h-5.23v5.5h-1.643v-12.462h7.72v1.344h-6.077v4.27h5.23Z" transform="translate(-716.294 -1226.878)" fill="#e1523d"/>
          <path id="Path_6091" data-name="Path 6091" d="M731.872,1230.667l-.9-.617a4.12,4.12,0,0,0,.822-2.344v-1.233h1.566v1.113a4.226,4.226,0,0,1-1.489,3.081Zm2.628,0-.9-.617a4.115,4.115,0,0,0,.822-2.344v-1.233h1.566v1.113a4.229,4.229,0,0,1-1.489,3.081Z" transform="translate(-721.478 -1226.473)" fill="#e1523d"/>
          <path id="Path_6092" data-name="Path 6092" d="M749.291,1234.521h-5.229v5.5h-1.643v-12.462h7.72v1.344h-6.077v4.27h5.229Z" transform="translate(-725.734 -1226.878)" fill="#e1523d"/>
          <path id="Path_6093" data-name="Path 6093" d="M756.494,1237.1a5.455,5.455,0,0,1,.535-2.447,3.986,3.986,0,0,1,1.489-1.678,4.054,4.054,0,0,1,2.178-.59,3.907,3.907,0,0,1,3.06,1.309,5.039,5.039,0,0,1,1.168,3.484v.111a5.522,5.522,0,0,1-.518,2.427,3.935,3.935,0,0,1-1.481,1.673,4.105,4.105,0,0,1-2.212.6,3.9,3.9,0,0,1-3.051-1.309,5.014,5.014,0,0,1-1.168-3.467Zm1.592.188a3.96,3.96,0,0,0,.715,2.474,2.422,2.422,0,0,0,3.83-.013,4.334,4.334,0,0,0,.71-2.649,3.954,3.954,0,0,0-.724-2.469,2.3,2.3,0,0,0-1.921-.945,2.273,2.273,0,0,0-1.891.933A4.3,4.3,0,0,0,758.086,1237.291Z" transform="translate(-730.968 -1228.672)" fill="#e1523d"/>
          <path id="Path_6094" data-name="Path 6094" d="M772.409,1237.1a5.455,5.455,0,0,1,.535-2.447,3.985,3.985,0,0,1,1.489-1.678,4.054,4.054,0,0,1,2.178-.59,3.907,3.907,0,0,1,3.06,1.309,5.039,5.039,0,0,1,1.168,3.484v.111a5.523,5.523,0,0,1-.518,2.427,3.936,3.936,0,0,1-1.481,1.673,4.105,4.105,0,0,1-2.212.6,3.9,3.9,0,0,1-3.051-1.309,5.014,5.014,0,0,1-1.168-3.467Zm1.592.188a3.96,3.96,0,0,0,.715,2.474,2.422,2.422,0,0,0,3.83-.013,4.334,4.334,0,0,0,.71-2.649,3.954,3.954,0,0,0-.724-2.469,2.3,2.3,0,0,0-1.921-.945,2.273,2.273,0,0,0-1.891.933A4.3,4.3,0,0,0,774,1237.291Z" transform="translate(-736.886 -1228.672)" fill="#e1523d"/>
          <path id="Path_6095" data-name="Path 6095" d="M788.377,1234.912a5.424,5.424,0,0,1,1.01-3.428,3.437,3.437,0,0,1,5.221-.184v-4.827h1.583v13.146h-1.455l-.077-.993a3.224,3.224,0,0,1-2.645,1.164,3.162,3.162,0,0,1-2.623-1.318,5.487,5.487,0,0,1-1.014-3.44Zm1.583.18a4.105,4.105,0,0,0,.651,2.465,2.1,2.1,0,0,0,1.8.89,2.309,2.309,0,0,0,2.2-1.352v-4.254a2.328,2.328,0,0,0-2.183-1.309,2.112,2.112,0,0,0-1.814.9A4.517,4.517,0,0,0,789.961,1235.092Z" transform="translate(-742.824 -1226.473)" fill="#e1523d"/>
          <path id="Path_6096" data-name="Path 6096" d="M804.536,1230.667l-.9-.617a4.12,4.12,0,0,0,.822-2.344v-1.233h1.566v1.113a4.227,4.227,0,0,1-1.489,3.081Zm2.628,0-.9-.617a4.116,4.116,0,0,0,.822-2.344v-1.233h1.566v1.113a4.229,4.229,0,0,1-1.489,3.081Z" transform="translate(-748.499 -1226.473)" fill="#e1523d"/>
          <path id="Path_6097" data-name="Path 6097" d="M717.5,1261.661v4.879h-1.644v-12.462h4.6a4.618,4.618,0,0,1,3.205,1.044,3.54,3.54,0,0,1,1.16,2.764,3.491,3.491,0,0,1-1.134,2.795,4.822,4.822,0,0,1-3.247.98Zm0-1.344h2.952a2.952,2.952,0,0,0,2.02-.622,2.272,2.272,0,0,0,.7-1.8,2.348,2.348,0,0,0-.7-1.783,2.765,2.765,0,0,0-1.926-.695H717.5Z" transform="translate(-715.856 -1236.738)" fill="#e1523d"/>
          <path id="Path_6098" data-name="Path 6098" d="M732.873,1257.182l-.9-.617a4.122,4.122,0,0,0,.822-2.345v-1.232h1.566v1.112a4.226,4.226,0,0,1-1.489,3.082Zm2.628,0-.9-.617a4.121,4.121,0,0,0,.822-2.345v-1.232h1.566v1.112a4.229,4.229,0,0,1-1.489,3.082Z" transform="translate(-721.85 -1236.333)" fill="#e1523d"/>
          <path id="Path_6099" data-name="Path 6099" d="M745.064,1261.661v4.879h-1.643v-12.462h4.6a4.621,4.621,0,0,1,3.206,1.044,3.542,3.542,0,0,1,1.16,2.764,3.493,3.493,0,0,1-1.134,2.795,4.824,4.824,0,0,1-3.248.98Zm0-1.344h2.952a2.951,2.951,0,0,0,2.02-.622,2.272,2.272,0,0,0,.7-1.8,2.348,2.348,0,0,0-.7-1.783,2.764,2.764,0,0,0-1.925-.695h-3.047Z" transform="translate(-726.106 -1236.738)" fill="#e1523d"/>
          <path id="Path_6100" data-name="Path 6100" d="M766.04,1268.333a3.322,3.322,0,0,1-.222-.976,3.533,3.533,0,0,1-2.637,1.147,3.268,3.268,0,0,1-2.246-.774,2.5,2.5,0,0,1-.877-1.964,2.618,2.618,0,0,1,1.1-2.247,5.183,5.183,0,0,1,3.093-.8h1.542v-.728a1.778,1.778,0,0,0-.5-1.322,2,2,0,0,0-1.464-.492,2.308,2.308,0,0,0-1.42.428,1.259,1.259,0,0,0-.573,1.035h-1.592a2.184,2.184,0,0,1,.492-1.339,3.353,3.353,0,0,1,1.335-1.023,4.487,4.487,0,0,1,1.852-.377,3.661,3.661,0,0,1,2.508.8,2.886,2.886,0,0,1,.942,2.2v4.262a5.216,5.216,0,0,0,.325,2.029v.137Zm-2.628-1.207a2.779,2.779,0,0,0,1.412-.385,2.33,2.33,0,0,0,.968-1v-1.9h-1.241q-2.911,0-2.91,1.7a1.443,1.443,0,0,0,.5,1.164A1.91,1.91,0,0,0,763.412,1267.126Z" transform="translate(-732.293 -1238.532)" fill="#e1523d"/>
          <path id="Path_6101" data-name="Path 6101" d="M775.059,1263.625a5.447,5.447,0,0,1,1-3.445,3.452,3.452,0,0,1,5.3-.081l.077-1.027h1.447v9.038a3.767,3.767,0,0,1-1.066,2.833,3.932,3.932,0,0,1-2.862,1.036,4.759,4.759,0,0,1-1.96-.428,3.378,3.378,0,0,1-1.464-1.173l.821-.95a3.1,3.1,0,0,0,2.491,1.258,2.426,2.426,0,0,0,1.8-.651,2.484,2.484,0,0,0,.647-1.832v-.8a3.255,3.255,0,0,1-2.594,1.1,3.164,3.164,0,0,1-2.632-1.31A5.723,5.723,0,0,1,775.059,1263.625Zm1.592.18a4.154,4.154,0,0,0,.641,2.461,2.087,2.087,0,0,0,1.8.895,2.32,2.32,0,0,0,2.2-1.361v-4.228a2.348,2.348,0,0,0-2.183-1.326,2.1,2.1,0,0,0-1.806.9A4.519,4.519,0,0,0,776.651,1263.8Z" transform="translate(-737.871 -1238.532)" fill="#e1523d"/>
          <path id="Path_6102" data-name="Path 6102" d="M794.919,1268.5a4.046,4.046,0,0,1-3.064-1.237,4.588,4.588,0,0,1-1.181-3.308v-.291a5.556,5.556,0,0,1,.526-2.461,4.112,4.112,0,0,1,1.471-1.695,3.7,3.7,0,0,1,2.05-.612,3.469,3.469,0,0,1,2.807,1.19,5.151,5.151,0,0,1,1,3.406v.659h-6.274a3.292,3.292,0,0,0,.8,2.213,2.516,2.516,0,0,0,1.947.842,2.756,2.756,0,0,0,1.422-.342,3.565,3.565,0,0,0,1.018-.907l.967.753A3.889,3.889,0,0,1,794.919,1268.5Zm-.2-8.3a2.113,2.113,0,0,0-1.609.7,3.39,3.39,0,0,0-.805,1.956h4.639v-.12a3.017,3.017,0,0,0-.651-1.87A1.989,1.989,0,0,0,794.722,1260.2Z" transform="translate(-743.678 -1238.532)" fill="#e1523d"/>
          <path id="Path_6103" data-name="Path 6103" d="M805.715,1257.182l-.9-.617a4.118,4.118,0,0,0,.822-2.345v-1.232H807.2v1.112a4.233,4.233,0,0,1-1.489,3.082Zm2.628,0-.9-.617a4.122,4.122,0,0,0,.822-2.345v-1.232h1.566v1.112a4.229,4.229,0,0,1-1.489,3.082Z" transform="translate(-748.937 -1236.333)" fill="#e1523d"/>
        </g>
        <g id="Group_1032" data-name="Group 1032" transform="translate(510.717 1256.308)">
          <path id="Path_6104" data-name="Path 6104" d="M703.4,1289.031h3.544v.807h-4.535v-7.477h.991Z" transform="translate(-702.405 -1281.95)" fill="#e1523d"/>
          <path id="Path_6105" data-name="Path 6105" d="M713.34,1291.017a2.428,2.428,0,0,1-1.839-.742,2.756,2.756,0,0,1-.709-1.986v-.174a3.338,3.338,0,0,1,.315-1.477,2.477,2.477,0,0,1,.883-1.017,2.225,2.225,0,0,1,1.23-.367,2.081,2.081,0,0,1,1.685.714,3.088,3.088,0,0,1,.6,2.043v.4h-3.764a1.973,1.973,0,0,0,.48,1.328,1.509,1.509,0,0,0,1.168.506,1.653,1.653,0,0,0,.852-.205,2.145,2.145,0,0,0,.611-.544l.58.452A2.334,2.334,0,0,1,713.34,1291.017Zm-.119-4.981a1.268,1.268,0,0,0-.965.418,2.034,2.034,0,0,0-.482,1.173h2.783v-.072a1.814,1.814,0,0,0-.39-1.122A1.194,1.194,0,0,0,713.221,1286.036Z" transform="translate(-705.524 -1283.026)" fill="#e1523d"/>
          <path id="Path_6106" data-name="Path 6106" d="M720.938,1283.277v1.345h1.037v.734h-1.037v3.45a.774.774,0,0,0,.138.5.584.584,0,0,0,.472.167,2.32,2.32,0,0,0,.452-.062v.766a2.751,2.751,0,0,1-.729.1,1.181,1.181,0,0,1-.96-.386,1.651,1.651,0,0,1-.323-1.094v-3.446h-1.012v-.734h1.012v-1.345Z" transform="translate(-708.567 -1282.291)" fill="#e1523d"/>
          <path id="Path_6107" data-name="Path 6107" d="M726.407,1283.277v1.345h1.038v.734h-1.038v3.45a.774.774,0,0,0,.139.5.584.584,0,0,0,.472.167,2.32,2.32,0,0,0,.452-.062v.766a2.754,2.754,0,0,1-.729.1,1.184,1.184,0,0,1-.96-.386,1.654,1.654,0,0,1-.323-1.094v-3.446h-1.013v-.734h1.013v-1.345Z" transform="translate(-710.601 -1282.291)" fill="#e1523d"/>
          <path id="Path_6108" data-name="Path 6108" d="M733.148,1291.017a2.429,2.429,0,0,1-1.839-.742,2.758,2.758,0,0,1-.708-1.986v-.174a3.337,3.337,0,0,1,.315-1.477,2.467,2.467,0,0,1,.883-1.017,2.223,2.223,0,0,1,1.23-.367,2.079,2.079,0,0,1,1.684.714,3.088,3.088,0,0,1,.6,2.043v.4h-3.764a1.977,1.977,0,0,0,.481,1.328,1.507,1.507,0,0,0,1.168.506,1.656,1.656,0,0,0,.853-.205,2.136,2.136,0,0,0,.611-.544l.58.452A2.332,2.332,0,0,1,733.148,1291.017Zm-.118-4.981a1.267,1.267,0,0,0-.965.418,2.039,2.039,0,0,0-.483,1.173h2.784v-.072a1.814,1.814,0,0,0-.39-1.122A1.194,1.194,0,0,0,733.03,1286.036Z" transform="translate(-712.89 -1283.026)" fill="#e1523d"/>
          <path id="Path_6109" data-name="Path 6109" d="M742.541,1286.21a2.85,2.85,0,0,0-.467-.036,1.252,1.252,0,0,0-1.268.8v3.944h-.95v-5.557h.925l.016.642a1.48,1.48,0,0,1,1.325-.744.96.96,0,0,1,.421.072Z" transform="translate(-716.331 -1283.026)" fill="#e1523d"/>
          <path id="Path_6110" data-name="Path 6110" d="M748.62,1289.44a.7.7,0,0,0-.29-.6,2.79,2.79,0,0,0-1.011-.367,4.8,4.8,0,0,1-1.146-.37,1.629,1.629,0,0,1-.626-.513,1.224,1.224,0,0,1-.2-.708,1.443,1.443,0,0,1,.578-1.156,2.257,2.257,0,0,1,1.477-.472,2.32,2.32,0,0,1,1.532.488,1.55,1.55,0,0,1,.589,1.247h-.955a.859.859,0,0,0-.331-.673,1.241,1.241,0,0,0-.834-.282,1.3,1.3,0,0,0-.812.225.712.712,0,0,0-.293.59.576.576,0,0,0,.271.519,3.347,3.347,0,0,0,.984.334,5.121,5.121,0,0,1,1.153.38,1.68,1.68,0,0,1,.654.531,1.307,1.307,0,0,1,.214.758,1.422,1.422,0,0,1-.6,1.193,2.5,2.5,0,0,1-1.546.45,2.8,2.8,0,0,1-1.181-.236,1.926,1.926,0,0,1-.8-.66,1.6,1.6,0,0,1-.29-.917h.95a.983.983,0,0,0,.383.758,1.485,1.485,0,0,0,.942.28,1.526,1.526,0,0,0,.865-.218A.67.67,0,0,0,748.62,1289.44Z" transform="translate(-718.301 -1283.026)" fill="#e1523d"/>
          <path id="Path_6111" data-name="Path 6111" d="M762.762,1286.382h-3.24v2.649h3.764v.807h-4.75v-7.477h4.7v.807h-3.714v2.408h3.24Z" transform="translate(-723.278 -1281.95)" fill="#e1523d"/>
          <path id="Path_6112" data-name="Path 6112" d="M768.9,1289.595h-.95v-7.888h.95Z" transform="translate(-726.777 -1281.707)" fill="#e1523d"/>
          <path id="Path_6113" data-name="Path 6113" d="M774.041,1291.017a2.429,2.429,0,0,1-1.839-.742,2.756,2.756,0,0,1-.709-1.986v-.174a3.338,3.338,0,0,1,.315-1.477,2.477,2.477,0,0,1,.883-1.017,2.225,2.225,0,0,1,1.23-.367,2.081,2.081,0,0,1,1.685.714,3.088,3.088,0,0,1,.6,2.043v.4h-3.765a1.97,1.97,0,0,0,.481,1.328,1.507,1.507,0,0,0,1.168.506,1.653,1.653,0,0,0,.852-.205,2.137,2.137,0,0,0,.611-.544l.58.452A2.333,2.333,0,0,1,774.041,1291.017Zm-.119-4.981a1.268,1.268,0,0,0-.965.418,2.035,2.035,0,0,0-.482,1.173h2.783v-.072a1.814,1.814,0,0,0-.39-1.122A1.194,1.194,0,0,0,773.922,1286.036Z" transform="translate(-728.097 -1283.026)" fill="#e1523d"/>
          <path id="Path_6114" data-name="Path 6114" d="M781.639,1285.357l.025.616a2.054,2.054,0,0,1,1.649-.719,1.587,1.587,0,0,1,1.586.894,2.106,2.106,0,0,1,.722-.648,2.132,2.132,0,0,1,1.05-.246q1.827,0,1.859,1.936v3.723h-.95v-3.666a1.278,1.278,0,0,0-.272-.891,1.2,1.2,0,0,0-.914-.3,1.259,1.259,0,0,0-.878.316,1.279,1.279,0,0,0-.406.85v3.687h-.955v-3.641a1.06,1.06,0,0,0-1.187-1.212,1.271,1.271,0,0,0-1.279.8v4.057h-.95v-5.557Z" transform="translate(-731.535 -1283.026)" fill="#e1523d"/>
          <path id="Path_6115" data-name="Path 6115" d="M797.586,1291.017a2.429,2.429,0,0,1-1.839-.742,2.756,2.756,0,0,1-.709-1.986v-.174a3.337,3.337,0,0,1,.315-1.477,2.476,2.476,0,0,1,.883-1.017,2.224,2.224,0,0,1,1.23-.367,2.081,2.081,0,0,1,1.685.714,3.088,3.088,0,0,1,.6,2.043v.4h-3.764a1.973,1.973,0,0,0,.48,1.328,1.509,1.509,0,0,0,1.168.506,1.653,1.653,0,0,0,.852-.205,2.138,2.138,0,0,0,.611-.544l.58.452A2.333,2.333,0,0,1,797.586,1291.017Zm-.119-4.981a1.268,1.268,0,0,0-.965.418,2.034,2.034,0,0,0-.482,1.173H798.8v-.072a1.815,1.815,0,0,0-.39-1.122A1.194,1.194,0,0,0,797.467,1286.036Z" transform="translate(-736.852 -1283.026)" fill="#e1523d"/>
          <path id="Path_6116" data-name="Path 6116" d="M805.192,1285.357l.03.7a2.026,2.026,0,0,1,1.665-.8q1.761,0,1.776,1.987v3.672h-.95v-3.677a1.277,1.277,0,0,0-.274-.888,1.1,1.1,0,0,0-.84-.288,1.369,1.369,0,0,0-.812.246,1.666,1.666,0,0,0-.544.647v3.959h-.95v-5.557Z" transform="translate(-740.293 -1283.026)" fill="#e1523d"/>
          <path id="Path_6117" data-name="Path 6117" d="M814.422,1283.277v1.345h1.037v.734h-1.037v3.45a.77.77,0,0,0,.139.5.582.582,0,0,0,.472.167,2.315,2.315,0,0,0,.452-.062v.766a2.751,2.751,0,0,1-.729.1,1.182,1.182,0,0,1-.96-.386,1.651,1.651,0,0,1-.323-1.094v-3.446H812.46v-.734h1.012v-1.345Z" transform="translate(-743.33 -1282.291)" fill="#e1523d"/>
          <path id="Path_6118" data-name="Path 6118" d="M822.1,1289.44a.7.7,0,0,0-.29-.6,2.78,2.78,0,0,0-1.011-.367,4.79,4.79,0,0,1-1.145-.37,1.629,1.629,0,0,1-.626-.513,1.224,1.224,0,0,1-.2-.708,1.442,1.442,0,0,1,.577-1.156,2.259,2.259,0,0,1,1.477-.472,2.322,2.322,0,0,1,1.533.488,1.549,1.549,0,0,1,.588,1.247h-.955a.857.857,0,0,0-.332-.673,1.24,1.24,0,0,0-.834-.282,1.3,1.3,0,0,0-.812.225.713.713,0,0,0-.293.59.577.577,0,0,0,.272.519,3.341,3.341,0,0,0,.984.334,5.109,5.109,0,0,1,1.153.38,1.671,1.671,0,0,1,.655.531,1.3,1.3,0,0,1,.214.758,1.422,1.422,0,0,1-.6,1.193,2.5,2.5,0,0,1-1.546.45,2.807,2.807,0,0,1-1.182-.236,1.921,1.921,0,0,1-.8-.66,1.591,1.591,0,0,1-.29-.917h.95a.983.983,0,0,0,.383.758,1.485,1.485,0,0,0,.942.28,1.529,1.529,0,0,0,.865-.218A.67.67,0,0,0,822.1,1289.44Z" transform="translate(-745.625 -1283.026)" fill="#e1523d"/>
        </g>
        <g id="Group_1034" data-name="Group 1034" transform="translate(428.814 1218.9)">
          <g id="Group_1033" data-name="Group 1033" transform="translate(0 0)">
            <path id="Path_6119" data-name="Path 6119" d="M588.135,1255.985H575.87v12.906h-3.854v-29.226h18.106v3.151H575.87v10.016h12.265Z" transform="translate(-572.016 -1239.665)" fill="#e1523d"/>
            <path id="Path_6120" data-name="Path 6120" d="M612.044,1257.45v11.441H608.19v-29.226h10.78a10.83,10.83,0,0,1,7.517,2.448,8.3,8.3,0,0,1,2.72,6.484,8.193,8.193,0,0,1-2.66,6.554q-2.66,2.3-7.618,2.3Zm0-3.151h6.926a6.924,6.924,0,0,0,4.737-1.458,5.332,5.332,0,0,0,1.646-4.213,5.508,5.508,0,0,0-1.646-4.182,6.489,6.489,0,0,0-4.517-1.629h-7.146Z" transform="translate(-585.468 -1239.665)" fill="#e1523d"/>
          </g>
        </g>
        <g id="Group_1037" data-name="Group 1037" transform="translate(727.497 1219.847)">
          <g id="Group_1035" data-name="Group 1035" transform="translate(-0.326 0)">
            <path id="Path_6121" data-name="Path 6121" d="M1091.577,1258.463v-16.92h5.532a6.419,6.419,0,0,1,4.142,1.139,4.106,4.106,0,0,1,1.388,3.37,3.437,3.437,0,0,1-.674,2.1,4.37,4.37,0,0,1-1.836,1.412,3.929,3.929,0,0,1,2.168,1.458,4.191,4.191,0,0,1,.8,2.562,4.529,4.529,0,0,1-1.475,3.58,6.106,6.106,0,0,1-4.172,1.3Zm2.232-9.7h3.369a3.534,3.534,0,0,0,2.342-.733,2.461,2.461,0,0,0,.878-1.992,2.418,2.418,0,0,0-.813-2.032,4,4,0,0,0-2.475-.635h-3.3Zm0,1.79v6.089h3.683a3.546,3.546,0,0,0,2.457-.807,2.837,2.837,0,0,0,.9-2.225q0-3.057-3.323-3.057Z" transform="translate(-1091.577 -1241.311)" fill="#e1523d"/>
            <path id="Path_6122" data-name="Path 6122" d="M1114.646,1242.416a1.284,1.284,0,0,1,.32-.883,1.2,1.2,0,0,1,.947-.36,1.217,1.217,0,0,1,.953.36,1.27,1.27,0,0,1,.325.883,1.331,1.331,0,0,1-2.225.872A1.241,1.241,0,0,1,1114.646,1242.416Zm2.325,15.909h-2.15v-12.573h2.15Z" transform="translate(-1100.156 -1241.173)" fill="#e1523d"/>
            <path id="Path_6123" data-name="Path 6123" d="M1125.838,1243.615v3.045h2.347v1.661h-2.347v7.807a1.744,1.744,0,0,0,.313,1.134,1.318,1.318,0,0,0,1.069.378,5.2,5.2,0,0,0,1.023-.139v1.733a6.266,6.266,0,0,1-1.65.231,2.677,2.677,0,0,1-2.173-.872,3.744,3.744,0,0,1-.732-2.475v-7.8h-2.29v-1.661h2.29v-3.045Z" transform="translate(-1102.666 -1242.081)" fill="#e1523d"/>
            <path id="Path_6124" data-name="Path 6124" d="M1141.093,1261.13a5.492,5.492,0,0,1-4.16-1.68,6.232,6.232,0,0,1-1.6-4.491v-.4a7.541,7.541,0,0,1,.715-3.34,5.568,5.568,0,0,1,2-2.3,5.025,5.025,0,0,1,2.783-.831,4.707,4.707,0,0,1,3.812,1.615,6.992,6.992,0,0,1,1.36,4.624v.9h-8.518a4.471,4.471,0,0,0,1.087,3,3.414,3.414,0,0,0,2.643,1.144,3.743,3.743,0,0,0,1.93-.465,4.84,4.84,0,0,0,1.383-1.232l1.313,1.023A5.28,5.28,0,0,1,1141.093,1261.13Zm-.268-11.272a2.866,2.866,0,0,0-2.184.947,4.6,4.6,0,0,0-1.093,2.655h6.3v-.163a4.1,4.1,0,0,0-.883-2.54A2.7,2.7,0,0,0,1140.825,1249.858Z" transform="translate(-1107.847 -1243.746)" fill="#e1523d"/>
          </g>
          <g id="Group_1036" data-name="Group 1036" transform="translate(0 31.911)">
            <path id="Path_6125" data-name="Path 6125" d="M1053.119,1282.611h-4.261v4.483h-1.338v-10.151h6.288v1.095h-4.95v3.479h4.261Z" transform="translate(-1047.52 -1276.385)" fill="#e1523d"/>
            <path id="Path_6126" data-name="Path 6126" d="M1058.985,1284.714a4.453,4.453,0,0,1,.437-1.994,3.253,3.253,0,0,1,1.212-1.367,3.309,3.309,0,0,1,1.775-.48,3.18,3.18,0,0,1,2.493,1.067,4.1,4.1,0,0,1,.952,2.837v.091a4.487,4.487,0,0,1-.422,1.976,3.2,3.2,0,0,1-1.206,1.363,3.339,3.339,0,0,1-1.8.489,3.174,3.174,0,0,1-2.486-1.067,4.08,4.08,0,0,1-.952-2.823Zm1.3.154a3.222,3.222,0,0,0,.583,2.014,1.972,1.972,0,0,0,3.119-.01,3.527,3.527,0,0,0,.578-2.158,3.223,3.223,0,0,0-.589-2.011,1.875,1.875,0,0,0-1.565-.77,1.853,1.853,0,0,0-1.541.76A3.5,3.5,0,0,0,1060.282,1284.868Z" transform="translate(-1051.783 -1277.847)" fill="#e1523d"/>
            <path id="Path_6127" data-name="Path 6127" d="M1071.949,1284.714a4.452,4.452,0,0,1,.437-1.994,3.248,3.248,0,0,1,1.212-1.367,3.306,3.306,0,0,1,1.774-.48,3.181,3.181,0,0,1,2.493,1.067,4.1,4.1,0,0,1,.952,2.837v.091a4.489,4.489,0,0,1-.422,1.976,3.2,3.2,0,0,1-1.206,1.363,3.34,3.34,0,0,1-1.8.489,3.174,3.174,0,0,1-2.485-1.067,4.079,4.079,0,0,1-.952-2.823Zm1.3.154a3.226,3.226,0,0,0,.582,2.014,1.973,1.973,0,0,0,3.12-.01,3.531,3.531,0,0,0,.578-2.158,3.223,3.223,0,0,0-.589-2.011,1.874,1.874,0,0,0-1.566-.77,1.852,1.852,0,0,0-1.541.76A3.5,3.5,0,0,0,1073.246,1284.868Z" transform="translate(-1056.604 -1277.847)" fill="#e1523d"/>
            <path id="Path_6128" data-name="Path 6128" d="M1084.959,1282.93a4.42,4.42,0,0,1,.823-2.793,2.8,2.8,0,0,1,4.252-.15v-3.932h1.29v10.709h-1.185l-.063-.808a2.628,2.628,0,0,1-2.154.948,2.577,2.577,0,0,1-2.137-1.074,4.468,4.468,0,0,1-.826-2.8Zm1.29.146a3.35,3.35,0,0,0,.529,2.008,1.715,1.715,0,0,0,1.465.725,1.88,1.88,0,0,0,1.791-1.1v-3.465a1.9,1.9,0,0,0-1.778-1.067,1.722,1.722,0,0,0-1.479.732A3.685,3.685,0,0,0,1086.249,1283.076Z" transform="translate(-1061.442 -1276.055)" fill="#e1523d"/>
            <path id="Path_6129" data-name="Path 6129" d="M1109.966,1282.4h-4.4v3.6h5.111v1.094h-6.449v-10.151h6.379v1.095h-5.041v3.27h4.4Z" transform="translate(-1068.608 -1276.385)" fill="#e1523d"/>
            <path id="Path_6130" data-name="Path 6130" d="M1118.294,1286.764H1117v-10.709h1.29Z" transform="translate(-1073.358 -1276.055)" fill="#e1523d"/>
            <path id="Path_6131" data-name="Path 6131" d="M1125.28,1288.7a3.3,3.3,0,0,1-2.5-1.008,3.739,3.739,0,0,1-.963-2.695v-.237a4.526,4.526,0,0,1,.429-2,3.348,3.348,0,0,1,1.2-1.381,3.015,3.015,0,0,1,1.67-.5,2.824,2.824,0,0,1,2.287.969,4.194,4.194,0,0,1,.816,2.774v.537h-5.11a2.677,2.677,0,0,0,.652,1.8,2.048,2.048,0,0,0,1.586.687,2.253,2.253,0,0,0,1.157-.278,2.922,2.922,0,0,0,.83-.739l.787.614A3.168,3.168,0,0,1,1125.28,1288.7Zm-.161-6.763a1.722,1.722,0,0,0-1.311.568,2.763,2.763,0,0,0-.655,1.593h3.779v-.1a2.458,2.458,0,0,0-.53-1.523A1.622,1.622,0,0,0,1125.119,1281.933Z" transform="translate(-1075.15 -1277.847)" fill="#e1523d"/>
            <path id="Path_6132" data-name="Path 6132" d="M1135.595,1281.012l.035.836a2.786,2.786,0,0,1,2.238-.975,2.155,2.155,0,0,1,2.154,1.213,2.806,2.806,0,0,1,2.406-1.213q2.482,0,2.524,2.628v5.055h-1.29v-4.978a1.731,1.731,0,0,0-.37-1.21,1.626,1.626,0,0,0-1.241-.4,1.713,1.713,0,0,0-1.193.429,1.738,1.738,0,0,0-.55,1.154v5.006h-1.3v-4.943a1.439,1.439,0,0,0-1.61-1.646,1.726,1.726,0,0,0-1.736,1.08v5.508h-1.29v-7.543Z" transform="translate(-1079.818 -1277.847)" fill="#e1523d"/>
            <path id="Path_6133" data-name="Path 6133" d="M1157.248,1288.7a3.3,3.3,0,0,1-2.5-1.008,3.741,3.741,0,0,1-.962-2.695v-.237a4.526,4.526,0,0,1,.429-2,3.343,3.343,0,0,1,1.2-1.381,3.014,3.014,0,0,1,1.67-.5,2.825,2.825,0,0,1,2.287.969,4.194,4.194,0,0,1,.816,2.774v.537h-5.11a2.677,2.677,0,0,0,.652,1.8,2.048,2.048,0,0,0,1.585.687,2.254,2.254,0,0,0,1.158-.278,2.918,2.918,0,0,0,.83-.739l.788.614A3.168,3.168,0,0,1,1157.248,1288.7Zm-.161-6.763a1.721,1.721,0,0,0-1.311.568,2.763,2.763,0,0,0-.655,1.593h3.779v-.1a2.458,2.458,0,0,0-.53-1.523A1.623,1.623,0,0,0,1157.087,1281.933Z" transform="translate(-1087.037 -1277.847)" fill="#e1523d"/>
            <path id="Path_6134" data-name="Path 6134" d="M1167.574,1281.012l.042.948a2.748,2.748,0,0,1,2.259-1.087q2.391,0,2.413,2.7v4.985H1171v-4.992a1.733,1.733,0,0,0-.373-1.206,1.492,1.492,0,0,0-1.139-.391,1.862,1.862,0,0,0-1.1.335,2.267,2.267,0,0,0-.739.878v5.376h-1.29v-7.543Z" transform="translate(-1091.71 -1277.847)" fill="#e1523d"/>
            <path id="Path_6135" data-name="Path 6135" d="M1180.106,1278.187v1.827h1.408v1h-1.408v4.684a1.047,1.047,0,0,0,.188.681.8.8,0,0,0,.642.227,3.108,3.108,0,0,0,.613-.083v1.04a3.759,3.759,0,0,1-.99.139,1.606,1.606,0,0,1-1.3-.523,2.244,2.244,0,0,1-.44-1.485v-4.678h-1.374v-1h1.374v-1.827Z" transform="translate(-1095.833 -1276.848)" fill="#e1523d"/>
            <path id="Path_6136" data-name="Path 6136" d="M1190.529,1286.555a.952.952,0,0,0-.394-.813,3.8,3.8,0,0,0-1.373-.5,6.5,6.5,0,0,1-1.555-.5,2.22,2.22,0,0,1-.85-.7,1.669,1.669,0,0,1-.276-.962,1.958,1.958,0,0,1,.785-1.568,3.063,3.063,0,0,1,2.005-.641,3.152,3.152,0,0,1,2.081.662,2.1,2.1,0,0,1,.8,1.694h-1.3a1.165,1.165,0,0,0-.449-.913,1.687,1.687,0,0,0-1.133-.383,1.766,1.766,0,0,0-1.1.307.966.966,0,0,0-.4.8.783.783,0,0,0,.369.7,4.564,4.564,0,0,0,1.335.453,6.963,6.963,0,0,1,1.565.516,2.291,2.291,0,0,1,.889.722,1.776,1.776,0,0,1,.29,1.028,1.931,1.931,0,0,1-.809,1.621,3.39,3.39,0,0,1-2.1.611,3.8,3.8,0,0,1-1.6-.321,2.607,2.607,0,0,1-1.092-.9,2.161,2.161,0,0,1-.394-1.245h1.29a1.332,1.332,0,0,0,.519,1.028,2.013,2.013,0,0,0,1.28.38,2.078,2.078,0,0,0,1.175-.3A.911.911,0,0,0,1190.529,1286.555Z" transform="translate(-1098.95 -1277.847)" fill="#e1523d"/>
          </g>
        </g>
        <g id="Group_1039" data-name="Group 1039" transform="translate(186.922 1205.866)">
          <g id="Group_1038" data-name="Group 1038">
            <path id="Path_6137" data-name="Path 6137" d="M233.5,1230.921a1.233,1.233,0,0,0-.41-.919l-3.411-3.411-7.295-7.312a1.235,1.235,0,0,0-.823-.361h-.014l-.037,0H188.156a1.234,1.234,0,0,0-1.234,1.234v58.024a1.234,1.234,0,0,0,1.234,1.234h44.109a1.234,1.234,0,0,0,1.234-1.234v-47.205c0-.016,0-.032,0-.048Zm-10.773-7.791,5.2,5.2,1.349,1.353h-6.552Zm-33.338,53.809v-55.555H220.26v9.536a1.234,1.234,0,0,0,1.234,1.234h9.536v44.784Zm0,0" transform="translate(-186.922 -1218.915)" fill="#e1523d"/>
          </g>
        </g>
        <g id="Group_1046" data-name="Group 1046" transform="translate(637.679 1209.243)">
          <g id="Group_1040" data-name="Group 1040" transform="translate(22.125 12.857)">
            <path id="Path_6138" data-name="Path 6138" d="M941.779,1244.94a1.353,1.353,0,1,0,.5,1.847,1.35,1.35,0,0,0-.5-1.847Zm0,0" transform="translate(-939.751 -1244.76)" fill="#e1523d"/>
          </g>
          <g id="Group_1041" data-name="Group 1041" transform="translate(12.856 22.124)">
            <path id="Path_6139" data-name="Path 6139" d="M926.35,1259.512a1.355,1.355,0,1,0,1.171.677,1.352,1.352,0,0,0-1.171-.677Zm0,0" transform="translate(-924.996 -1259.512)" fill="#e1523d"/>
          </g>
          <g id="Group_1042" data-name="Group 1042" transform="translate(16.248 34.783)">
            <path id="Path_6140" data-name="Path 6140" d="M931.749,1279.666a1.353,1.353,0,1,0,1.353,1.354,1.355,1.355,0,0,0-1.353-1.354Zm0,0" transform="translate(-930.396 -1279.666)" fill="#e1523d"/>
          </g>
          <g id="Group_1043" data-name="Group 1043" transform="translate(28.907 38.176)">
            <path id="Path_6141" data-name="Path 6141" d="M952.582,1285.251a1.352,1.352,0,1,0,.628.819,1.354,1.354,0,0,0-.628-.819Zm0,0" transform="translate(-950.549 -1285.068)" fill="#e1523d"/>
          </g>
          <g id="Group_1044" data-name="Group 1044" transform="translate(38.174 28.909)">
            <path id="Path_6142" data-name="Path 6142" d="M966.656,1270.314a1.358,1.358,0,0,0-.677.182,1.353,1.353,0,0,0-.5,1.846,1.353,1.353,0,0,0,2.48-.325,1.341,1.341,0,0,0-.135-1.024,1.356,1.356,0,0,0-1.173-.678Zm0,0" transform="translate(-965.303 -1270.314)" fill="#e1523d"/>
          </g>
          <g id="Group_1045" data-name="Group 1045" transform="translate(0 0)">
            <path id="Path_6143" data-name="Path 6143" d="M958.266,1250.916v-.107a1.288,1.288,0,0,0-1.224-1.271,5.141,5.141,0,0,1-4.416-2.989,1.289,1.289,0,0,0-1.913-.513,5.215,5.215,0,0,1-2.982.945,5.156,5.156,0,0,1-5.125-5.627,1.289,1.289,0,0,0-1.4-1.4c-.154.014-.311.021-.465.021a5.155,5.155,0,0,1-4.215-8.13,1.289,1.289,0,0,0-.513-1.913,5.139,5.139,0,0,1-2.988-4.415,1.289,1.289,0,0,0-1.271-1.223l-.1,0-.247,0a26.87,26.87,0,1,0,26.87,26.87c0-.082,0-.164,0-.245ZM931.4,1275.453a24.292,24.292,0,0,1-.789-48.572,11.958,11.958,0,0,1,3.427,11.806,16.541,16.541,0,0,1,9.834,9.835,7.732,7.732,0,0,0,7.113.322,7.7,7.7,0,0,0,4.695,3.106,24.321,24.321,0,0,1-24.279,23.5Zm0,0" transform="translate(-904.529 -1224.291)" fill="#e1523d"/>
          </g>
        </g>
      </g>
    </g>
  </g>
</svg>
