<svg xmlns="http://www.w3.org/2000/svg" width="48.27" height="41.004" viewBox="0 0 48.27 41.004">
  <g id="Addicta_logo" transform="translate(-13.221 -15.004)">
    <g id="Group_2" data-name="Group 2" transform="translate(13.221 15.006)">
      <path id="Path_10" data-name="Path 10" d="M34.5,16.93l21.874,36.8a1.1,1.1,0,0,1,0,1.151,1.16,1.16,0,0,1-1.024.575H42a2.306,2.306,0,0,1-2.035-1.141L25.775,30.444a2.171,2.171,0,0,1,0-2.281L32.452,16.93a1.2,1.2,0,0,1,2.051,0Z" transform="translate(-8.266 -14.46)" fill="#90f995" fill-rule="evenodd"/>
      <path id="Path_11" data-name="Path 11" d="M36.334,16.776l-15.4,29.166H53.173Z" transform="translate(-10.097 -14.289)" fill="#0fe0c7" fill-rule="evenodd"/>
      <path id="Path_12" data-name="Path 12" d="M36.353,15.581l-22.969,38.7a1.1,1.1,0,0,0,0,1.152,1.16,1.16,0,0,0,1.026.575H27.762A2.306,2.306,0,0,0,29.8,54.863L45.74,28.01l-.659-1.179L38.4,15.581a1.2,1.2,0,0,0-2.051,0Z" transform="translate(-13.221 -15.006)" fill="#6e18e9" fill-rule="evenodd"/>
    </g>
  </g>
</svg>
