<svg xmlns="http://www.w3.org/2000/svg" width="168" height="41" viewBox="0 0 168 41"><defs><style>.a{fill:#3d3c55;}.b{fill:#90f995;}.b,.c,.d{fill-rule:evenodd;}.c{fill:#0fe0c7;}.d{fill:#6e18e9;}</style></defs><g transform="translate(-13.221 -15.006)"><g transform="translate(74.49 28.483)"><path class="a" d="M88.952,25.006h-4.67a.069.069,0,0,0-.069.069v2.493a.069.069,0,0,0,.069.069h4.592a4.341,4.341,0,1,1,0,8.678h-1.72a.069.069,0,0,1-.069-.069V30.579a.069.069,0,0,0-.069-.069H84.282a.069.069,0,0,0-.069.069v8.367h4.739A6.981,6.981,0,1,0,88.952,25.006Z" transform="translate(-46.789 -25.006)"/><path class="a" d="M65.785,25.006h-3.2l-5,13.847a.069.069,0,0,0,.065.093h2.861a.068.068,0,0,0,.065-.046l3.622-10.178a.069.069,0,0,1,.129,0L67.981,38.9a.068.068,0,0,0,.065.046h2.713a.069.069,0,0,0,.065-.093l-4.974-13.8A.07.07,0,0,0,65.785,25.006Z" transform="translate(-57.578 -25.006)"/><path class="a" d="M99.8,27.636v-2.63h-2.8a.069.069,0,0,0-.069.069v2.561Z" transform="translate(-41.64 -25.006)"/><path class="a" d="M96.923,28.923V37.29a.069.069,0,0,0,.069.069h2.734a.069.069,0,0,0,.07-.069V28.923Z" transform="translate(-41.64 -23.419)"/><path class="a" d="M76.36,25.006H71.215a.069.069,0,0,0-.069.069v2.493a.069.069,0,0,0,.069.069h5.067a4.341,4.341,0,1,1,0,8.678l-2.195,0a.069.069,0,0,1-.069-.069V30.579a.069.069,0,0,0-.069-.069H71.215a.069.069,0,0,0-.069.069v8.367H76.36A6.981,6.981,0,1,0,76.36,25.006Z" transform="translate(-52.082 -25.006)"/><path class="a" d="M132.379,25.051a.068.068,0,0,0-.065-.045h-3.15a.07.07,0,0,0-.065.045l-4.987,13.8a.069.069,0,0,0,.065.093h2.861a.069.069,0,0,0,.065-.046l3.58-10.105a.069.069,0,0,1,.129,0l3.7,10.107a.069.069,0,0,0,.065.046h2.715a.069.069,0,0,0,.065-.093Z" transform="translate(-30.628 -25.006)"/><path class="a" d="M114.62,25.075v2.552a.069.069,0,0,0,.069.069H125.1a.069.069,0,0,0,.069-.069v-2.62H114.689A.069.069,0,0,0,114.62,25.075Z" transform="translate(-34.472 -25.006)"/><path class="a" d="M110.369,25.006a6.981,6.981,0,1,0,0,13.94H113.6a.069.069,0,0,0,.069-.069V36.314h-3.225a4.341,4.341,0,1,1,0-8.678l3.156,0a.069.069,0,0,0,.069-.069v-2.5a.069.069,0,0,0-.069-.069Z" transform="translate(-39.182 -25.006)"/><path class="a" d="M117.351,28.9v8.422a.069.069,0,0,0,.069.069h2.734a.069.069,0,0,0,.069-.069V28.835h-2.8A.068.068,0,0,0,117.351,28.9Z" transform="translate(-33.365 -23.455)"/></g><g transform="translate(13.221 15.006)"><path class="b" d="M34.5,16.93l21.874,36.8a1.1,1.1,0,0,1,0,1.151,1.16,1.16,0,0,1-1.024.575H42a2.306,2.306,0,0,1-2.035-1.141L25.775,30.444a2.171,2.171,0,0,1,0-2.281L32.452,16.93a1.2,1.2,0,0,1,2.051,0Z" transform="translate(-8.266 -14.46)"/><path class="c" d="M36.334,16.776l-15.4,29.166H53.173Z" transform="translate(-10.097 -14.289)"/><path class="d" d="M36.353,15.581l-22.969,38.7a1.1,1.1,0,0,0,0,1.152,1.16,1.16,0,0,0,1.026.575H27.762A2.306,2.306,0,0,0,29.8,54.863L45.74,28.01l-.659-1.179L38.4,15.581a1.2,1.2,0,0,0-2.051,0Z" transform="translate(-13.221 -15.006)"/></g></g></svg>