<svg xmlns="http://www.w3.org/2000/svg" width="23" height="20" viewBox="0 0 23 20"><defs><style>.a,.b,.c,.d{fill:#fff;}.b{opacity:0.349;}.c{opacity:0.5;}.d{opacity:0.75;}</style></defs><g transform="translate(-305 -524)"><path class="a" d="M253.664,362.2l2.892,5.009,2.892,5.009H247.88l2.892-5.009Z" transform="translate(68.552 161.797)"/><path class="a" d="M253.664,372.221l2.892-5.009,2.892-5.009H247.88l2.892,5.009Z" transform="translate(57.122 171.779)"/><path class="b" d="M258.05,381.556h-2.973l.83-1.433.657-1.14.657,1.14Z" transform="translate(65.758 155.015)"/><path class="b" d="M258.05,378.983h-2.973l.83,1.433.657,1.14.657-1.14Z" transform="translate(54.115 152.447)"/><path class="c" d="M258.531,386.639H252.6l.078-.137.746-1.29h4.287l.746,1.29Z" transform="translate(66.651 152.498)"/><path class="c" d="M258.531,385.213H252.6l.078.137.746,1.29h4.287l.746-1.29Z" transform="translate(55.221 143.65)"/><path class="d" d="M259.017,390.956H250.1l.83-1.433h7.26Z" transform="translate(67.658 150.752)"/><path class="d" d="M259.017,389.523H250.1l.83,1.433h7.26Z" transform="translate(56.229 136.77)"/><path class="a" d="M259.447,394.985H247.877l.669-1.152h10.233Z" transform="translate(68.553 149.015)"/><path class="a" d="M259.447,393.833H247.877l.669,1.152h10.233Z" transform="translate(57.123 130.167)"/></g></svg>