<svg xmlns="http://www.w3.org/2000/svg" width="1088" height="310" viewBox="0 0 1088 310"><defs><style>.a{fill:#fff;stroke:#e6e6e6;}.b{fill:#7ac943;}.c{stroke:none;}.d{fill:none;}</style></defs><g transform="translate(-139 -2987)"><g class="a" transform="translate(139 2987)"><rect class="c" width="1088" height="310"/><rect class="d" x="0.5" y="0.5" width="1087" height="309"/></g><g transform="translate(28 2560.097)"><g transform="translate(479 558.354)"><path class="b" d="M493.235,558.354H479v14.235a23.465,23.465,0,0,0,23.465,23.465H516.7V581.819A23.466,23.466,0,0,0,493.235,558.354Z" transform="translate(-479 -558.354)"/><path class="b" d="M571.08,583.352a18.772,18.772,0,0,0-18.772,18.772v5.006h5.005a18.772,18.772,0,0,0,18.772-18.772v-5.006Z" transform="translate(-511.478 -569.429)"/></g><g transform="translate(554.76 558.542)"><path d="M630.923,558.692a18.983,18.983,0,0,1,6.633,1.136,14.405,14.405,0,0,1,5.317,3.407,15.744,15.744,0,0,1,3.51,5.678,22.967,22.967,0,0,1,1.265,8,25.549,25.549,0,0,1-1.032,7.434,16.365,16.365,0,0,1-3.123,5.885,14.64,14.64,0,0,1-5.214,3.9,17.638,17.638,0,0,1-7.356,1.419h-15.9V558.692Zm-.568,30.044a10.411,10.411,0,0,0,3.407-.568,7.511,7.511,0,0,0,2.942-1.884,9.476,9.476,0,0,0,2.065-3.433,15.1,15.1,0,0,0,.774-5.162,21.486,21.486,0,0,0-.542-5.033,10.035,10.035,0,0,0-1.781-3.846,7.91,7.91,0,0,0-3.278-2.452,13.084,13.084,0,0,0-5.033-.852h-5.782v23.23Z" transform="translate(-615.023 -558.692)"/><path d="M681.1,584.584a8.511,8.511,0,0,1,1.29-4.285,8.777,8.777,0,0,1,2.891-2.736,12.6,12.6,0,0,1,3.949-1.472,22.5,22.5,0,0,1,4.414-.439,29.974,29.974,0,0,1,4.078.284,12.492,12.492,0,0,1,3.768,1.11,7.427,7.427,0,0,1,2.788,2.3,6.423,6.423,0,0,1,1.084,3.9v13.887a27.784,27.784,0,0,0,.207,3.459,6.23,6.23,0,0,0,.722,2.477h-7.433a10.326,10.326,0,0,1-.336-1.265,10.825,10.825,0,0,1-.18-1.316,9.554,9.554,0,0,1-4.13,2.53,16.6,16.6,0,0,1-4.852.722,13.09,13.09,0,0,1-3.562-.464,8.144,8.144,0,0,1-2.891-1.445,6.719,6.719,0,0,1-1.936-2.478,8.377,8.377,0,0,1-.7-3.562,7.781,7.781,0,0,1,.8-3.743,6.693,6.693,0,0,1,2.065-2.349,9.251,9.251,0,0,1,2.891-1.316,31.042,31.042,0,0,1,3.278-.7q1.651-.258,3.252-.413a19.439,19.439,0,0,0,2.839-.465,4.955,4.955,0,0,0,1.962-.9,1.985,1.985,0,0,0,.67-1.73,3.891,3.891,0,0,0-.386-1.884,2.851,2.851,0,0,0-1.033-1.084,4.077,4.077,0,0,0-1.5-.516,12.367,12.367,0,0,0-1.832-.129,5.568,5.568,0,0,0-3.407.93,4.145,4.145,0,0,0-1.445,3.1ZM698.032,590a3.273,3.273,0,0,1-1.161.646,11.961,11.961,0,0,1-1.5.387q-.8.155-1.678.258t-1.755.258a13.28,13.28,0,0,0-1.626.413,4.823,4.823,0,0,0-1.394.7,3.317,3.317,0,0,0-.955,1.109,3.57,3.57,0,0,0-.361,1.7,3.443,3.443,0,0,0,.361,1.652,2.768,2.768,0,0,0,.981,1.058,4.128,4.128,0,0,0,1.445.542,9.185,9.185,0,0,0,1.7.155,6.485,6.485,0,0,0,3.356-.722,4.845,4.845,0,0,0,1.755-1.73,5.541,5.541,0,0,0,.7-2.039,14.053,14.053,0,0,0,.129-1.652Z" transform="translate(-643.932 -566.206)"/><path d="M735.885,564.732v-6.04h7.33v6.04Zm7.33,4.13V595.55h-7.33V568.862Z" transform="translate(-668.569 -558.692)"/><path d="M767.128,558.692V595.55H759.8V558.692Z" transform="translate(-679.163 -558.692)"/><path d="M790.775,611.59a10.634,10.634,0,0,1-5.885,1.394q-1.135,0-2.246-.078t-2.245-.18v-6.04q1.032.1,2.116.207a15.318,15.318,0,0,0,2.168.051,2.85,2.85,0,0,0,2.143-1.136,3.657,3.657,0,0,0,.7-2.168,4.406,4.406,0,0,0-.31-1.652l-9.344-25.037h7.795l6.04,18.274h.1l5.833-18.274h7.589l-11.15,29.992A9.028,9.028,0,0,1,790.775,611.59Z" transform="translate(-687.17 -566.781)"/><path d="M846.652,558.692l15.384,24.727h.1V558.692h7.589V595.55h-8.1l-15.331-24.675h-.1V595.55H838.6V558.692Z" transform="translate(-714.076 -558.692)"/><path d="M912.709,596.663a7.514,7.514,0,0,0,8.569.491,4.6,4.6,0,0,0,1.961-2.349h6.453a12.249,12.249,0,0,1-4.749,6.866,13.983,13.983,0,0,1-7.744,2.065,15.24,15.24,0,0,1-5.678-1.006,11.792,11.792,0,0,1-4.285-2.865,12.878,12.878,0,0,1-2.71-4.44,16.237,16.237,0,0,1-.955-5.679,15.573,15.573,0,0,1,.981-5.575,12.9,12.9,0,0,1,7.1-7.433,13.816,13.816,0,0,1,5.549-1.084,12.689,12.689,0,0,1,5.937,1.317,11.857,11.857,0,0,1,4.156,3.536,14.552,14.552,0,0,1,2.349,5.059,18.865,18.865,0,0,1,.516,5.937H910.9Q911.058,595.064,912.709,596.663Zm8.285-14.041a5.15,5.15,0,0,0-4-1.445,6.39,6.39,0,0,0-2.916.593,5.56,5.56,0,0,0-1.858,1.472,5.378,5.378,0,0,0-.981,1.859,8.393,8.393,0,0,0-.336,1.755h11.926A8.473,8.473,0,0,0,920.994,582.622Z" transform="translate(-742.861 -566.206)"/><path d="M965.91,596.663a7.514,7.514,0,0,0,8.569.491,4.606,4.606,0,0,0,1.962-2.349h6.452a12.246,12.246,0,0,1-4.749,6.866,13.981,13.981,0,0,1-7.743,2.065,15.243,15.243,0,0,1-5.679-1.006,11.79,11.79,0,0,1-4.284-2.865,12.88,12.88,0,0,1-2.711-4.44,16.239,16.239,0,0,1-.955-5.679,15.573,15.573,0,0,1,.981-5.575,12.9,12.9,0,0,1,7.1-7.433,13.816,13.816,0,0,1,5.549-1.084,12.69,12.69,0,0,1,5.937,1.317,11.857,11.857,0,0,1,4.156,3.536,14.549,14.549,0,0,1,2.349,5.059,18.879,18.879,0,0,1,.516,5.937H964.1Q964.259,595.064,965.91,596.663Zm8.285-14.041a5.15,5.15,0,0,0-4-1.445,6.386,6.386,0,0,0-2.916.593,5.562,5.562,0,0,0-1.859,1.472,5.386,5.386,0,0,0-.981,1.859,8.345,8.345,0,0,0-.336,1.755h11.925A8.472,8.472,0,0,0,974.2,582.622Z" transform="translate(-766.431 -566.206)"/><path d="M1030.332,592.143a7.559,7.559,0,0,1-3.381,3.123,11.252,11.252,0,0,1-4.724.955,11.409,11.409,0,0,1-5.265-1.161,10.553,10.553,0,0,1-3.743-3.149,14.269,14.269,0,0,1-2.22-4.569,19.171,19.171,0,0,1-.749-5.368,18.02,18.02,0,0,1,.749-5.188,13.487,13.487,0,0,1,2.22-4.414,10.779,10.779,0,0,1,8.853-4.233,10.5,10.5,0,0,1,4.517,1.007,7.874,7.874,0,0,1,3.381,2.968h.1V558.692h7.33V595.55h-6.969v-3.407Zm-.31-13.189a7.78,7.78,0,0,0-1.058-2.685,5.968,5.968,0,0,0-1.936-1.884,5.679,5.679,0,0,0-2.994-.722,5.96,5.96,0,0,0-3.046.722A5.717,5.717,0,0,0,1019,576.3a8.441,8.441,0,0,0-1.084,2.71,14.7,14.7,0,0,0-.335,3.175,13.545,13.545,0,0,0,.361,3.1,8.42,8.42,0,0,0,1.161,2.762,6.425,6.425,0,0,0,2.013,1.961,5.44,5.44,0,0,0,2.917.749,5.811,5.811,0,0,0,3.02-.723,5.494,5.494,0,0,0,1.936-1.935,8.693,8.693,0,0,0,1.032-2.762,16.276,16.276,0,0,0,.31-3.2A15.9,15.9,0,0,0,1030.023,578.954Z" transform="translate(-790.124 -558.692)"/><path d="M1074.063,596.431a4.275,4.275,0,0,0,1.264,1.394,5.434,5.434,0,0,0,1.781.8,8.363,8.363,0,0,0,2.091.258,7.816,7.816,0,0,0,1.626-.18,5.538,5.538,0,0,0,1.549-.568,3.5,3.5,0,0,0,1.161-1.033,2.708,2.708,0,0,0,.464-1.626q0-1.652-2.194-2.478a43.922,43.922,0,0,0-6.117-1.652q-1.6-.361-3.123-.852a10.608,10.608,0,0,1-2.71-1.29,6.264,6.264,0,0,1-1.91-2.013,5.7,5.7,0,0,1-.722-2.968,8.032,8.032,0,0,1,1.006-4.233,7.42,7.42,0,0,1,2.659-2.607,11.639,11.639,0,0,1,3.717-1.342,22.882,22.882,0,0,1,4.233-.388,21.156,21.156,0,0,1,4.207.413,11.164,11.164,0,0,1,3.64,1.393,8.373,8.373,0,0,1,2.658,2.607,8.766,8.766,0,0,1,1.265,4.1h-6.97a3.21,3.21,0,0,0-1.6-2.865,7.326,7.326,0,0,0-3.408-.749,12.762,12.762,0,0,0-1.342.077,4.471,4.471,0,0,0-1.317.336,2.722,2.722,0,0,0-1.007.749,1.977,1.977,0,0,0-.413,1.316,2.01,2.01,0,0,0,.722,1.6,5.586,5.586,0,0,0,1.884,1.006,23.482,23.482,0,0,0,2.658.7q1.5.31,3.046.671a31.25,31.25,0,0,1,3.124.878,10.316,10.316,0,0,1,2.71,1.368,6.637,6.637,0,0,1,1.91,2.116,6.225,6.225,0,0,1,.722,3.123,8.111,8.111,0,0,1-3.82,7.279,11.314,11.314,0,0,1-3.9,1.523,22.769,22.769,0,0,1-4.465.438,22.072,22.072,0,0,1-4.543-.464,11.981,11.981,0,0,1-3.949-1.548,8.847,8.847,0,0,1-2.839-2.866,8.96,8.96,0,0,1-1.214-4.465h6.969A4.006,4.006,0,0,0,1074.063,596.431Z" transform="translate(-815.09 -566.206)"/></g></g></g></svg>