<svg xmlns="http://www.w3.org/2000/svg" xmlns:xlink="http://www.w3.org/1999/xlink" width="167.221" height="40.744" viewBox="0 0 167.221 40.744"><defs><style>.a{fill:#fff;}.b{fill:url(#a);}.c{fill:url(#b);}.d{fill:url(#c);}</style><linearGradient id="a" x1="0.5" y1="-2.052" x2="0.5" y2="1" gradientUnits="objectBoundingBox"><stop offset="0" stop-color="#3d3c55"/><stop offset="0.837" stop-color="#fff"/><stop offset="1" stop-color="#fff"/></linearGradient><linearGradient id="b" x1="-1.165" y1="-0.624" x2="0.995" y2="0.964" gradientUnits="objectBoundingBox"><stop offset="0" stop-color="#3d3c55"/><stop offset="0.767" stop-color="#fff"/><stop offset="1" stop-color="#fff"/></linearGradient><linearGradient id="c" x1="-0.448" y1="1.858" x2="0.492" y2="0.655" gradientUnits="objectBoundingBox"><stop offset="0" stop-color="#3d3c55"/><stop offset="1" stop-color="#fff"/></linearGradient></defs><g transform="translate(-14 -15.006)"><g transform="translate(74.49 28.483)"><path class="a" d="M88.952,25.006h-4.67a.069.069,0,0,0-.069.069v2.493a.069.069,0,0,0,.069.069h4.592a4.341,4.341,0,1,1,0,8.678h-1.72a.069.069,0,0,1-.069-.069V30.579a.069.069,0,0,0-.069-.069H84.282a.069.069,0,0,0-.069.069v8.367h4.739A6.981,6.981,0,1,0,88.952,25.006Z" transform="translate(-46.789 -25.006)"/><path class="a" d="M65.785,25.006h-3.2l-5,13.847a.069.069,0,0,0,.065.093h2.861a.068.068,0,0,0,.065-.046l3.622-10.178a.069.069,0,0,1,.129,0L67.981,38.9a.068.068,0,0,0,.065.046h2.713a.069.069,0,0,0,.065-.093l-4.974-13.8A.07.07,0,0,0,65.785,25.006Z" transform="translate(-57.578 -25.006)"/><path class="a" d="M99.8,27.636v-2.63h-2.8a.069.069,0,0,0-.069.069v2.561Z" transform="translate(-41.64 -25.006)"/><path class="a" d="M96.923,28.923V37.29a.069.069,0,0,0,.069.069h2.734a.069.069,0,0,0,.07-.069V28.923Z" transform="translate(-41.64 -23.419)"/><path class="a" d="M76.36,25.006H71.215a.069.069,0,0,0-.069.069v2.493a.069.069,0,0,0,.069.069h5.067a4.341,4.341,0,1,1,0,8.678l-2.195,0a.069.069,0,0,1-.069-.069V30.579a.069.069,0,0,0-.069-.069H71.215a.069.069,0,0,0-.069.069v8.367H76.36A6.981,6.981,0,1,0,76.36,25.006Z" transform="translate(-52.082 -25.006)"/><path class="a" d="M132.379,25.051a.068.068,0,0,0-.065-.045h-3.15a.07.07,0,0,0-.065.045l-4.987,13.8a.069.069,0,0,0,.065.093h2.861a.069.069,0,0,0,.065-.046l3.58-10.105a.069.069,0,0,1,.129,0l3.7,10.107a.069.069,0,0,0,.065.046h2.715a.069.069,0,0,0,.065-.093Z" transform="translate(-30.628 -25.006)"/><path class="a" d="M114.62,25.075v2.552a.069.069,0,0,0,.069.069H125.1a.069.069,0,0,0,.069-.069v-2.62H114.689A.069.069,0,0,0,114.62,25.075Z" transform="translate(-34.472 -25.006)"/><path class="a" d="M110.369,25.006a6.981,6.981,0,1,0,0,13.94H113.6a.069.069,0,0,0,.069-.069V36.314h-3.225a4.341,4.341,0,1,1,0-8.678l3.156,0a.069.069,0,0,0,.069-.069v-2.5a.069.069,0,0,0-.069-.069Z" transform="translate(-39.182 -25.006)"/><path class="a" d="M117.351,28.9v8.422a.069.069,0,0,0,.069.069h2.734a.069.069,0,0,0,.069-.069V28.835h-2.8A.068.068,0,0,0,117.351,28.9Z" transform="translate(-33.365 -23.455)"/></g><g transform="translate(-111.349 -43.166)"><path class="b" d="M196.2,124.874l-5.842-10.119a1.124,1.124,0,0,1-.975,1.688h-14.25l5.2,9.013a2.218,2.218,0,0,0,1.966,1.135h12.907a1.144,1.144,0,0,0,.991-1.717Z" transform="translate(-24.351 -27.675)"/><path class="c" d="M186.331,98.663l-9.7-16.809a2.207,2.207,0,0,1-.162,1.921L169,96.7l-2.105,3.646H187.3Z" transform="translate(-20.32 -11.583)"/><path class="d" d="M156.307,70.272l-5.6-9.7h0l5.6,9.7a2.441,2.441,0,0,0-.162-.349l-6.454-11.178a1.145,1.145,0,0,0-1.982,0L125.506,97.2a1.144,1.144,0,0,0,.991,1.717H139.4a2.218,2.218,0,0,0,1.966-1.135l5.2-9.013,2.105-3.646,7.465-12.929A2.207,2.207,0,0,0,156.307,70.272Z" transform="translate(0 0)"/></g></g></svg>