<svg xmlns="http://www.w3.org/2000/svg" xmlns:xlink="http://www.w3.org/1999/xlink" width="46.648" height="40.744" viewBox="0 0 46.648 40.744">
  <defs>
    <linearGradient id="linear-gradient" x1="0.5" y1="-2.052" x2="0.5" y2="1" gradientUnits="objectBoundingBox">
      <stop offset="0" stop-color="#3d3c55"/>
      <stop offset="0.837" stop-color="#fff"/>
      <stop offset="1" stop-color="#fff"/>
    </linearGradient>
    <linearGradient id="linear-gradient-2" x1="-1.165" y1="-0.624" x2="0.995" y2="0.964" gradientUnits="objectBoundingBox">
      <stop offset="0" stop-color="#3d3c55"/>
      <stop offset="0.767" stop-color="#fff"/>
      <stop offset="1" stop-color="#fff"/>
    </linearGradient>
    <linearGradient id="linear-gradient-3" x1="-0.448" y1="1.858" x2="0.492" y2="0.655" gradientUnits="objectBoundingBox">
      <stop offset="0" stop-color="#3d3c55"/>
      <stop offset="1" stop-color="#fff"/>
    </linearGradient>
  </defs>
  <g id="Group_2" data-name="Group 2" transform="translate(-125.352 -58.174)">
    <path id="Path_10" data-name="Path 10" d="M196.2,124.874l-5.842-10.119a1.124,1.124,0,0,1-.975,1.688h-14.25l5.2,9.013a2.218,2.218,0,0,0,1.966,1.135h12.907a1.144,1.144,0,0,0,.991-1.717Z" transform="translate(-24.351 -27.675)" fill="url(#linear-gradient)"/>
    <path id="Path_11" data-name="Path 11" d="M186.331,98.663l-9.7-16.809a2.207,2.207,0,0,1-.162,1.921L169,96.7l-2.1,3.646h20.4Z" transform="translate(-20.32 -11.583)" fill="url(#linear-gradient-2)"/>
    <path id="Path_12" data-name="Path 12" d="M156.307,70.272l-5.6-9.7h0l5.6,9.7a2.442,2.442,0,0,0-.162-.349l-6.454-11.178a1.145,1.145,0,0,0-1.982,0L125.506,97.2a1.144,1.144,0,0,0,.991,1.717h12.9a2.218,2.218,0,0,0,1.966-1.135l5.2-9.013,2.1-3.646,7.465-12.929a2.207,2.207,0,0,0,.171-1.922Z" fill="url(#linear-gradient-3)"/>
  </g>
</svg>
