<svg xmlns="http://www.w3.org/2000/svg" xmlns:xlink="http://www.w3.org/1999/xlink" width="1365.619" height="507.981" viewBox="0 0 1365.619 507.981"><defs><style>.a{fill:url(#a);}</style><linearGradient id="a" x1="0.5" y1="0.379" x2="0.5" gradientUnits="objectBoundingBox"><stop offset="0" stop-color="#fff"/><stop offset="1" stop-color="#f3f8ff"/></linearGradient></defs><g transform="translate(-161.077 19.287)"><path class="a" d="M1500.828,241.005v51.43h-37.122V218.319h-18.974V192.867H1335.757v25.451h-17.784V399.7h-8.394V383.314h-30.366V247.908h-8.132V383.314h-27.664V399.7H1142V579.131h255.713V526.472h49.5v42.906H1568.2V411.4h13.747V241.005Z" transform="translate(-55.249 -212.154)"/><path class="a" d="M553.484,449.6V198.147h4.087v-4.72H419.961V122.882l-68.915,19.684-.093,43.244h-8.411v-68.9H334.15V83.7h-9.027V56.34H322.2V83.7h-5.852V64.692h-2.922V83.7h-6.7v33.212h-9.508v68.9h-8.4V449.6Z" transform="translate(-43.527 -56.34)"/><rect class="a" width="149.466" height="201.821" transform="translate(902.464 89.823)"/><path class="a" d="M910,591.754h130.044V405.412l-58.266-37.434V357H910Z" transform="translate(71.841 -300.111)"/><path class="a" d="M448.214,439.968h-10.7v23.915h-2.441V356.63H396.581V344.656H390.3V332.42H379.748v12.236h-5.277V356.63H319v231.3H435.076v-9.044h15.549v-115h-2.41Z" transform="translate(374.652 -296.287)"/><path class="a" d="M336.639,562.633v-253.8H300.953V329.99l-12.16-1.528-52.288,1.444V224.342h-9.39V169.47h-4.923v54.872h-9.4V238.41h-23.7V562.633Z" transform="translate(-28.013 -73.938)"/></g></svg>